<?xml version="1.0" standalone="no"?>
<!DOCTYPE svg PUBLIC "-//W3C//DTD SVG 20010904//EN"
 "http://www.w3.org/TR/2001/REC-SVG-20010904/DTD/svg10.dtd">
<svg version="1.0" xmlns="http://www.w3.org/2000/svg"
 width="2048.000000pt" height="2048.000000pt" viewBox="0 0 2048.000000 2048.000000"
 preserveAspectRatio="xMidYMid meet">

<g transform="translate(0.000000,2048.000000) scale(0.100000,-0.100000)"
fill="#000000" stroke="none">
<path d="M3595 20473 c-310 -13 -707 -89 -1017 -193 -591 -200 -1117 -550
-1582 -1055 -514 -559 -817 -1170 -941 -1903 -53 -310 -49 200 -53 -6962 -3
-6749 -3 -6782 34 -7069 106 -820 474 -1553 1088 -2166 314 -314 614 -533 991
-726 432 -221 854 -338 1388 -384 157 -13 934 -15 6732 -15 7088 0 6691 -3
7037 50 614 95 1131 314 1643 695 394 293 771 704 1022 1116 289 471 441 925
520 1544 17 133 18 490 21 6730 2 4599 0 6638 -8 6750 -56 851 -320 1532 -838
2165 -370 453 -836 825 -1335 1065 -375 180 -669 265 -1167 338 l-145 21
-6660 1 c-3663 1 -6691 0 -6730 -2z m3320 -2027 c465 -47 895 -123 1365 -243
656 -166 1154 -338 1780 -612 l186 -81 174 79 c421 188 965 387 1385 505 685
193 1165 288 1759 348 175 17 277 21 596 21 390 0 491 -6 785 -49 816 -119
1505 -433 2105 -959 132 -116 370 -361 479 -492 956 -1155 1177 -2688 681
-4728 -145 -595 -356 -1208 -642 -1857 l-60 -138 51 -115 c634 -1426 963
-2906 902 -4055 -27 -505 -93 -875 -226 -1275 -200 -600 -513 -1102 -985
-1575 -600 -601 -1337 -983 -2180 -1129 -275 -48 -645 -81 -905 -81 -147 0
-559 25 -743 45 -941 104 -2017 404 -2999 837 l-182 80 -225 -96 c-771 -330
-1488 -560 -2161 -695 -643 -129 -979 -166 -1530 -166 -386 0 -484 6 -785 50
-762 111 -1397 383 -1971 843 -155 124 -420 379 -563 542 -599 681 -922 1501
-987 2510 -22 350 -1 875 51 1265 47 347 157 888 240 1185 10 36 37 133 60
215 121 434 344 1046 535 1470 36 78 65 147 65 152 0 5 -33 84 -74 175 -414
927 -728 2035 -841 2968 -35 294 -47 556 -42 880 6 333 20 508 63 760 104 624
294 1115 617 1600 146 218 283 384 508 610 491 496 949 786 1584 1003 305 104
796 197 1170 221 150 9 808 -3 960 -18z"/>
<path d="M5888 17639 c-894 -98 -1582 -415 -2139 -985 -357 -367 -628 -838
-774 -1349 -155 -540 -194 -1137 -119 -1834 61 -573 254 -1366 494 -2036 38
-104 75 -205 83 -224 l14 -33 133 223 c309 519 655 1026 1030 1509 793 1021
2032 2251 3050 3025 550 418 991 716 1465 990 94 54 174 102 178 106 11 8 -91
49 -358 141 -284 99 -509 165 -830 246 -510 129 -839 187 -1278 227 -238 21
-728 19 -949 -6z"/>
<path d="M13800 17653 c-562 -40 -996 -117 -1651 -293 -290 -78 -654 -197
-922 -300 l-57 -23 212 -127 c117 -69 240 -143 273 -164 1065 -678 1916 -1373
2900 -2367 1008 -1020 1779 -2010 2420 -3112 31 -54 59 -97 61 -95 1 2 32 82
67 178 449 1222 637 2421 521 3330 -146 1154 -751 2075 -1684 2563 -541 284
-1150 420 -1855 415 -132 -1 -260 -3 -285 -5z"/>
<path d="M10075 16539 c-483 -246 -1078 -616 -1590 -988 -694 -503 -1224 -961
-1916 -1651 -701 -700 -1182 -1261 -1694 -1975 -386 -538 -747 -1130 -981
-1606 l-37 -76 98 -189 c662 -1274 1621 -2518 2875 -3729 1028 -992 2121
-1792 3262 -2389 l146 -77 91 46 c568 285 1315 758 1886 1194 1113 850 2182
1907 3046 3011 385 491 767 1060 1072 1596 128 225 287 522 287 536 0 32 -358
669 -538 958 -615 985 -1315 1845 -2274 2796 -1022 1013 -2038 1788 -3169
2419 -171 96 -382 205 -396 205 -5 0 -80 -37 -168 -81z m2696 -3974 c147 -31
279 -105 390 -218 159 -163 229 -333 229 -556 0 -182 -33 -302 -119 -434 -82
-125 -219 -245 -348 -304 -130 -60 -87 -57 -978 -63 l-820 -5 -5 -1665 c-6
-1849 0 -1690 -74 -1845 -44 -95 -96 -164 -181 -244 -111 -103 -221 -164 -357
-196 -97 -23 -296 -20 -394 6 -263 68 -490 295 -567 566 l-22 78 -3 1653 -3
1652 -882 0 c-825 0 -887 2 -953 19 -188 49 -363 177 -475 348 -86 132 -119
252 -119 434 0 173 35 294 125 428 89 134 222 246 357 303 141 59 -21 56 2660
57 2165 1 2475 -1 2539 -14z"/>
<path d="M3410 9223 c-170 -464 -249 -717 -359 -1160 -152 -607 -218 -1064
-228 -1593 -14 -716 96 -1278 356 -1815 316 -654 785 -1128 1438 -1454 392
-196 801 -308 1323 -363 186 -19 751 -16 960 5 701 73 1439 248 2185 519 121
44 221 81 222 82 2 1 -122 77 -275 169 -1355 811 -2685 1948 -3888 3323 -588
672 -1231 1562 -1614 2237 -40 70 -76 130 -80 132 -5 3 -23 -34 -40 -82z"/>
<path d="M16956 9187 c-226 -398 -639 -1016 -959 -1432 -677 -882 -1389 -1645
-2287 -2456 -423 -382 -970 -818 -1450 -1156 -268 -188 -727 -481 -977 -624
-62 -35 -113 -66 -113 -69 0 -15 588 -216 861 -295 630 -182 1164 -282 1713
-320 276 -19 438 -19 691 0 730 55 1267 232 1811 596 278 186 502 397 704 664
386 511 611 1103 685 1805 74 702 -28 1580 -290 2490 -101 352 -295 921 -314
920 -3 -1 -37 -56 -75 -123z"/>
</g>
</svg>
