<?xml version="1.0" standalone="no"?>
<!DOCTYPE svg PUBLIC "-//W3C//DTD SVG 20010904//EN"
 "http://www.w3.org/TR/2001/REC-SVG-20010904/DTD/svg10.dtd">
<svg version="1.0" xmlns="http://www.w3.org/2000/svg"
 width="773.000000pt" height="146.000000pt" viewBox="0 0 773.000000 146.000000"
 preserveAspectRatio="xMidYMid meet">

<g transform="translate(0.000000,146.000000) scale(0.100000,-0.100000)"
fill="#000000" stroke="none">
<path d="M3518 1450 c-115 -18 -257 -97 -338 -187 -27 -31 -65 -88 -84 -127
-56 -113 -66 -173 -66 -406 0 -242 11 -305 70 -419 69 -132 176 -225 320 -278
l75 -28 295 0 c281 0 298 1 367 23 145 47 267 152 334 286 61 126 71 193 67
451 -4 196 -7 227 -27 285 -66 189 -206 327 -391 385 -45 15 -102 18 -310 21
-140 1 -281 -1 -312 -6z m558 -374 c109 -51 139 -136 132 -381 -3 -122 -9
-169 -22 -200 -21 -50 -59 -91 -111 -118 -38 -21 -53 -22 -280 -22 l-240 0
-55 31 c-45 26 -60 42 -85 89 -28 55 -30 63 -33 219 -6 246 21 326 130 380 51
26 54 26 282 26 222 0 233 -1 282 -24z"/>
<path d="M17 1422 c-24 -27 -25 -293 -1 -316 13 -14 51 -16 260 -16 l244 0 0
-513 c0 -448 2 -515 16 -535 14 -21 22 -22 164 -22 122 0 151 3 164 16 14 14
16 76 16 535 l0 519 250 0 c236 0 250 1 260 19 5 11 10 82 10 159 0 122 -2
141 -18 155 -17 16 -79 17 -684 17 -631 0 -666 -1 -681 -18z"/>
<path d="M1835 1430 c-88 -22 -183 -94 -230 -175 -52 -89 -56 -133 -53 -563
l3 -397 33 -67 c41 -84 109 -147 197 -182 l65 -26 488 0 c366 0 491 3 500 12
8 8 12 59 12 165 0 140 -2 153 -19 163 -13 6 -177 10 -465 10 -430 0 -446 1
-456 19 -13 25 -14 660 0 681 8 13 72 15 461 18 309 2 457 6 466 14 10 8 13
49 13 164 0 141 -2 154 -19 164 -23 12 -948 12 -996 0z"/>
<path d="M4873 1415 c-23 -14 -51 -40 -62 -59 -21 -33 -21 -43 -21 -673 0
-484 3 -642 12 -651 8 -8 58 -12 159 -12 121 0 150 3 163 16 14 13 16 47 16
212 l0 197 94 -3 94 -3 241 -210 242 -209 214 0 215 0 16 25 c9 14 13 33 9 44
-3 11 -96 97 -206 192 -109 94 -199 173 -199 174 0 1 33 18 73 38 143 71 232
181 262 324 19 89 19 301 0 372 -19 75 -62 139 -120 183 -89 68 -90 68 -654
68 l-506 0 -42 -25z m977 -422 c0 -107 -9 -134 -53 -167 -27 -20 -43 -21 -343
-26 l-314 -5 0 148 0 147 355 0 355 0 0 -97z"/>
<path d="M6530 1421 c-46 -25 -69 -51 -86 -98 -17 -49 -20 -906 -3 -999 22
-122 94 -215 209 -272 l55 -27 498 -3 c369 -2 503 0 513 9 20 16 20 311 1 328
-10 7 -153 12 -468 13 l-454 3 -3 87 -3 88 405 0 c357 0 406 2 421 16 13 13
15 39 13 167 -3 150 -3 152 -28 164 -19 10 -113 13 -418 11 l-392 -3 0 93 0
92 458 0 c343 0 461 3 470 12 8 8 12 59 12 163 0 104 -4 155 -12 163 -9 9
-152 12 -583 12 -535 -1 -572 -2 -605 -19z"/>
</g>
</svg>
