<svg xmlns="http://www.w3.org/2000/svg" viewBox="0 0 1078 1078"><path d="M661.1 4.1C629.6 8.1 588.1 21.9 553.7 40.4L527.8 54.1 474.1 54.4C343.3 55.6 231.9 101.9 140.7 192.6 71.5 261.5 27.8 343.7 8.5 440.7 0.7 478.9 0 571.9 7 607.4 20.4 676.3 51.1 750 88.1 801.9 159.6 902.6 273.7 974.1 394.1 994.4 436.3 1001.5 510.7 1001.5 555.6 994.4 679.3 974.1 798.9 895.9 868.9 790 892.2 754.8 914.1 709.6 924.4 677 930 658.5 934.1 653.3 952.2 638.9 1010.4 593.3 1063 507.4 1073.7 440.4 1079.3 407 1078.5 311.1 1072.6 277.8 1052.6 165.2 950 54.4 829.6 15.6 785.9 1.1 720-3.3 661.1 4.1ZM788.5 76.7C801.5 79.6 820 85.6 829.3 89.6 847.8 97.8 918.5 143.7 918.5 147.8 918.5 148.9 910 158.1 900 167.8L881.9 185.6 858.5 167.4C831.1 146.3 818.5 140.4 781.5 130 711.9 110.4 627.4 126.7 578.1 169.3 570 175.9 562.2 181.5 560.7 181.5 558.9 181.5 550.7 174.4 542.2 166.3 527 151.5 526.7 150.4 532.2 142.2 539.6 130.4 584.4 103 618.5 88.9 671.9 66.7 730.7 62.6 788.5 76.7ZM455.6 114.1C455.6 115.9 452.2 120.4 447.8 124.4 433.7 137 407.4 177.4 392.6 208.1 376.7 241.9 367.8 271.9 364.1 304.4 363 315.9 360.7 327 359.6 328.9 357.8 332.2 330.4 326.7 302.6 317.4 297.8 315.9 325.2 262.6 350.7 224.4 364.1 204.4 391.9 170.7 412.2 149.6 446.7 113.7 455.6 106.3 455.6 114.1ZM366.3 140C335.9 171.9 305.6 217.4 280 267.8L262.2 303.3 245.2 295.9C214.1 282.6 169.6 257.4 167.4 252.2 162.6 240 235.6 183 290.4 155.6 324.4 138.5 373.7 121.1 377.4 124.8 378.5 125.6 373.3 132.2 366.3 140ZM755.9 174.1C792.2 181.1 840.7 208.1 840.7 221.9 840.7 223 835.2 230.7 828.1 238.5L815.6 253.3 784.8 238.9C756.3 225.6 751.1 224.1 722.2 224.1 693.3 224.1 688.5 225.2 660 238.5L629.3 253 612.6 236.7 595.9 220.4 610 207.8C644.4 177.4 702.6 164.1 755.9 174.1ZM153.7 293C160 297 183 309.6 205.2 320.7 227.4 331.9 246.3 341.5 247 341.9 247.8 342.6 245.6 351.5 242.6 361.9 234.1 391.1 223 447.4 220.4 478.5L217.8 507.4 138.5 507.4 59.3 507.4 59.3 496.7C59.3 481.1 73 415.6 81.1 392.2 94.8 352.6 131.5 285.2 138.9 285.2 140.7 285.2 147.8 288.5 153.7 293ZM811.9 303L820.4 311.5 821.5 462.2C822.6 631.9 821.9 638.9 798.9 648.5 786.3 654.1 672.2 655.2 645.9 650.4 620 645.2 620.4 647 620.4 470 620.4 321.1 620.7 311.5 627.4 304.4 635.9 294.4 648.1 293.3 734.1 294.1 801.1 294.4 803.7 294.8 811.9 303ZM322.2 364.4L357.4 373.3 360 391.1C367 438.1 371.5 458.9 379.6 482.2L388.5 507.4 323.7 507.4 259.3 507.4 259.3 493C259.3 466.7 281.1 355.6 286.3 355.6 286.7 355.6 303 359.6 322.2 364.4ZM220 578.5C222.6 609.3 238.1 688.5 244.4 705.9 247.8 714.1 246.7 715.6 237.8 718.9 221.9 724.8 162.6 755.2 151.5 763 145.9 767 140 770.4 138.1 770.4 134.8 770.4 113.3 734.8 97 701.9 80 667 59.3 588.9 59.3 558.1L59.3 548.1 138.5 548.1 217.4 548.1 220 578.5ZM423.3 567.8C431.1 578.9 441.1 591.5 446.3 596.3 454.8 604.4 455.6 607.8 455.6 637.4L455.6 670 443.7 671.9C437 673 418.5 674.8 402.6 676.3 386.7 677.4 354.4 683.3 330.4 689.3 306.7 695.2 285.9 698.5 284.4 697 278.9 691.5 263 613.7 260.7 580.4L258.1 548.1 334.1 548.1 410 548.1 423.3 567.8ZM518.1 661.1C535.9 673 533.7 675.9 508.9 672.2 493.3 670 492.6 669.3 492.6 657 492.6 647.4 493.7 644.8 497.4 647 500 648.5 509.3 654.8 518.1 661.1ZM851.9 701.9C851.9 707.4 824.4 755.2 812.6 770 811.9 770.7 801.9 765.6 790 758.9 778.1 751.9 758.5 741.1 746.7 735.2L724.4 724.1 754.4 721.5C784.1 719.3 830 709.3 840.7 703.3 847 699.6 851.9 699.3 851.9 701.9ZM454.8 826.7C454.1 913 452.6 942.2 449.3 943.3 442.6 945.6 389.3 889.3 361.5 850.7 338.9 818.9 307.8 764.1 302.2 745.9 300 738.9 302.2 737.4 323 731.5 353.7 723 415.9 711.9 438.1 711.5L455.6 711.1 454.8 826.7ZM564.4 718.5C617 727.4 648.1 735.9 648.1 741.5 648.1 748.5 615.6 810.4 599.3 834.8 565.9 884.4 508.5 946.7 498.9 943.3 495.6 942.2 494.1 913.3 493.3 831.1 493 770.4 493.3 718.5 494.4 715.9 496.7 709.3 513.3 710 564.4 718.5ZM312.2 849.3C323 865.9 340.7 890 351.5 903 362.2 915.9 370 927.4 368.9 928.5 365.6 931.9 311.5 911.9 282.2 895.9 230 868.1 163.3 814.1 167.4 803 168.9 800 190 787 214.8 774.4L260.4 751.5 276.3 785.2C285.2 803.7 301.1 832.2 312.2 849.3ZM758.5 785.9C773 794.4 785.2 802.6 785.2 803.7 785.2 808.1 743.7 845.9 719.6 863.7 707.4 873 682.2 887.8 664.1 897 631.9 913.7 583 932.2 579.6 928.9 578.9 928.1 585.6 918.1 594.8 907.4 620 877 648.9 832.6 670 790L688.9 752.2 710 761.5C721.9 766.7 743.7 777.8 758.5 785.9ZM691.9 360.4C681.1 369.6 670.4 388.5 670.4 399.3 670.4 410 690.4 435.2 703.3 440.7 721.1 448.1 744.4 443.3 756.3 430 774.8 409.3 774.4 381.5 755.6 362.6 746.3 353.3 742.2 351.9 723.3 351.9 706.7 351.9 699.6 353.7 691.9 360.4Z"></path></svg>
