<svg xmlns="http://www.w3.org/2000/svg" viewBox="0 0 1000 1000"><path d="M194.6 12.5C161.4 19.6 118.6 35 92.9 49.3 67.5 62.9 24.3 94.3 11.8 107.9L3.6 116.4 28.6 141.1 53.2 165.4 67.1 152.9C135.4 91.4 238.9 62.5 327.1 80.7 382.1 92.1 429.6 115.4 472.1 151.1L489.6 165.7 512.5 142.9C525.4 130 535.7 118.6 535.7 116.8 535.7 113.2 511.1 90.7 487.1 72.5 453.6 46.8 399.3 23.2 346.8 12.1 316.8 6.1 223.9 6.1 194.6 12.5ZM216.1 146.1C180.4 155 127.1 183.6 108.2 204.3L100 212.9 124.3 236.8 148.6 261.1 162.9 249.6C195.7 223.6 242.5 208.6 281.1 212.1 312.5 214.6 350.4 228.9 373.6 246.4L393.2 261.1 416.1 238.9C428.9 226.8 439.3 214.6 439.3 211.8 439.3 206.1 401.4 177.9 378.6 166.1 344.3 148.6 316.4 142.9 270 143.2 246.4 143.6 222.1 144.6 216.1 146.1ZM651.8 208.9C618.6 216.1 575.7 231.4 550 245.7 524.6 259.3 481.4 290.7 468.9 304.3L460.7 312.9 485.7 337.5 510.4 361.8 524.3 349.3C592.5 287.9 696.1 258.9 784.3 277.1 839.3 288.6 886.8 311.8 929.3 347.5L946.8 362.1 969.6 339.3C982.5 326.4 992.9 315 992.9 313.2 992.9 309.6 968.2 287.1 944.3 268.9 910.7 243.2 856.4 219.6 803.9 208.6 773.9 202.5 681.1 202.5 651.8 208.9ZM157.1 313.2C154.3 314.3 148.2 318.6 143.9 322.5L135.7 329.6 135.7 551.8C135.7 769.6 135.7 773.9 142.9 781.4 146.8 785.7 153.9 790 158.2 791.1 162.5 792.1 216.4 792.9 277.9 792.1L390 791.1 398.6 781.1 407.1 771.1 407.1 553.2C407.1 403.9 406.1 332.9 403.2 327.9 395 312.5 382.1 310.7 268.9 311.1 210.4 311.1 160 312.1 157.1 313.2ZM289.6 386.4C350.7 407.5 353.9 481.4 295.4 511.4 256.1 531.4 203.9 495.7 203.6 448.9 203.6 429.6 209.3 416.8 223.9 402.9 243.6 384.3 266.4 378.2 289.6 386.4ZM673.2 342.5C637.5 351.4 584.3 380 565.4 400.7L557.1 409.3 581.4 433.2 605.7 457.5 620 446.1C652.9 420 699.6 405 738.2 408.6 769.6 411.1 807.5 425.4 830.7 442.9L850.4 457.5 873.2 435.4C886.1 423.2 896.4 411.1 896.4 408.2 896.4 402.5 858.6 374.3 835.7 362.5 801.4 345 773.6 339.3 727.1 339.6 703.6 340 679.3 341.1 673.2 342.5ZM614.3 509.6C611.4 510.7 605.4 515 601.1 518.9L592.9 526.1 592.9 748.2C592.9 966.1 592.9 970.4 600 977.9 603.9 982.1 611.1 986.4 615.4 987.5 619.6 988.6 673.6 989.3 735 988.6L847.1 987.5 855.7 977.5 864.3 967.5 864.3 749.6C864.3 600.4 863.2 529.3 860.4 524.3 852.1 508.9 839.3 507.1 726.1 507.5 667.5 507.5 617.1 508.6 614.3 509.6ZM746.8 582.9C807.9 603.9 811.1 677.9 752.5 707.9 713.2 727.9 661.1 692.1 660.7 645.4 660.7 626.1 666.4 613.2 681.1 599.3 700.7 580.7 723.6 574.6 746.8 582.9Z"></path></svg>
