<svg version="1.0" xmlns="http://www.w3.org/2000/svg" viewBox="0 0 2275 462"><path d="M.3 23.5.5 47H97v301h54V47l48-.2 48-.3.3-23.3.2-23.2H.1l.2 23.5zM1189.8.5c-.2.3-5.4 1-11.4 1.6-6 .6-11.3 1.4-11.9 1.8-.5.5-3.8 1.4-7.3 2.1-3.4.7-6.5 1.7-6.8 2.1-.3.5-1.2.9-2 .9-.9 0-4.6 1.4-8.2 3.1-20.8 9.6-39.5 25.1-52.3 43.3-5.3 7.5-13.9 23.6-13.9 26 0 .8-.4 1.6-.8 1.8-1.6.6-7 22.7-8.2 33.8-1.1 9.9-1.1 202.3 0 212 1.1 9.7 2.9 19.1 3.9 21 .5.9 1.4 4.2 2.1 7.3.7 3.1 1.7 5.7 2.2 5.7.4 0 .8.7.8 1.6 0 2.2 7.3 16.5 12.1 23.6 12.7 18.7 32.8 35.9 51.9 44.5 2.5 1.1 6.1 2.8 8.2 3.7 2 .9 4.3 1.6 5.1 1.6.9 0 1.8.4 2.1.9.3.5 2.7 1.2 5.3 1.6 2.7.4 5.3 1.1 5.8 1.5 4.2 3.4 12.5 3.5 503.5 3.5 490.6 0 499.2-.1 503.5-3.5.6-.4 2.9-1.1 5.3-1.5 2.4-.4 5.6-1.3 7-2.1 1.5-.8 3.3-1.4 4-1.4.7 0 2-.4 3-.9.9-.5 4-2 6.7-3.2 24.8-11 48.8-34.6 60.9-59.9 2-4.1 3.6-8 3.6-8.6 0-.7.3-1.4.8-1.6 1.1-.5 3.9-9.5 5.2-16.8.7-3.6 1.7-7.6 2.4-9 1.5-3.3 2.1-207.1.7-219.8-1.7-14.7-6.2-33.1-8.3-34-.5-.2-.8-1-.8-1.8 0-2.2-7.3-16.4-12.5-24.4-4.6-7.1-20.5-23.9-28.2-29.9-4.1-3.2-21.9-14.1-23.2-14.1-.3-.1-2.4-.9-4.6-2-2.2-1.1-4.8-1.9-5.7-2-1 0-1.8-.4-1.8-.9 0-.4-2.8-1.4-6.2-2.1-3.5-.6-7.2-1.6-8.3-2.1-7.2-3.2-17.4-3.3-502.1-3.6-264.6-.2-481.3-.1-481.6.2zM1564 103c4.7.6 11.9 2 16 3.1 9.6 2.6 26.7 11.5 35 18.2 16.3 13.2 28.3 33.1 33.7 55.7 2.1 8.8 3 63.3 1.3 76.7-2.9 23.3-11.1 40.9-26.5 57.2-14.4 15.1-31.8 24.4-53.8 28.6-11.5 2.2-79.9 2.2-91.4 0-40.7-7.7-69.8-36-78.8-76.6-1.2-5.4-1.8-14.7-2.2-34.6-.8-39.3 1.3-55 9.6-72.9 14.9-31.7 43-51.4 79.6-55.7 7.3-.9 69.9-.6 77.5.3zm-206.4 4.5 2.5 2.5-.3 25.1c-.3 23.5-.4 25.2-2.2 26.5-1.7 1.2-13.9 1.4-77.7 1.4h-75.8l-1.5 2.2c-1.4 2-1.6 9.1-1.6 57.8 0 48.7.2 55.8 1.6 57.8l1.5 2.2h151l2.4 2.5 2.5 2.4v23.9c0 22.8-.1 24.1-2.1 26.6l-2.1 2.7-79.6-.3c-88.9-.4-83.8 0-99.2-7.6-10.1-5-21.4-16-26.3-25.8-7.2-14.3-7-12.3-7.4-78.6-.4-51.3-.2-61 1.2-68.9 3.4-19.6 13.4-35.5 28.4-45 5.7-3.7 16.2-7.6 23.1-8.8 3-.5 40.1-.9 82.3-1l76.8-.1 2.5 2.5zm536.3-.1c12.5 4.2 24.8 13.7 31 24.1 1.9 3.1 4.6 9.3 6 13.8 2.4 7.9 2.5 9.2 2.5 32.2-.1 21.3-.3 24.9-2.2 32-7.4 27.5-26.2 47.1-54.3 56.4l-7.9 2.6 37 31.9c39.2 33.8 39.5 34.1 35 38.6-1.9 1.9-3.3 2-37 2h-34.9l-40.6-35.2-40.6-35.3-15.9-.5-16-.5v33.7c0 33.4 0 33.7-2.2 35.8-2.1 1.9-3.4 2-27 2-23.5 0-24.9-.1-26.8-2-2-2-2-3.3-2-106 0-101.4 0-104.1 2-109.3 3.2-8.4 11.3-15.5 20.5-17.8 1.7-.4 40.1-.6 85.5-.5 76.8.1 82.9.3 87.9 2zm300.1-.4c1.9 1.9 2 3.3 2 27.2 0 22-.2 25.4-1.7 27-1.5 1.7-5.3 1.8-79 1.8H2038v31.5l67.6-.3c59.6-.2 68-.1 70 1.3l2.4 1.5v25.9c0 23.8-.1 25.9-1.8 27.5-1.7 1.5-7.6 1.6-70 1.4l-68.2-.3v13.8c0 7.6.5 14.7 1 15.8 1 1.9 3 1.9 77 1.9 74.7 0 76 0 78 2 1.9 1.9 2 3.3 2 27 0 23.8-.1 25.1-2 27-2.1 2.1-2.7 2.1-82.3 1.7l-80.2-.3-7-2.3c-9.1-3-12.7-4.9-20.3-10.6-7.4-5.6-14.1-14-18.3-23-5.8-12.3-6-15.3-5.7-100.6.3-71.2.4-77.7 2-81.1 3.8-8 12.8-15.3 20.7-16.9 2-.4 45.3-.7 96.4-.8 91.4-.1 92.7-.1 94.7 1.9z"/><path d="M1485.6 161.1c-6.2 1.5-15.3 6.8-19.7 11.6-9.5 10.4-11.3 19.4-10.7 55.7.4 21.7.8 26.9 2.2 31.1 3.9 10.9 12.1 19.5 22.4 23.7 5.6 2.3 6.3 2.3 44.2 2.3 37.9 0 38.6 0 44.2-2.3 10-4 17.5-11.7 21.9-22.2 2.2-5.2 2.3-7 2.7-34 .4-31.3-.2-36.9-4.8-46-3.8-7.4-10-13.2-18.5-17.2l-7-3.3-36.5-.2c-20.1-.1-38.2.3-40.4.8zM1756 187.7v24.8l51.2-.5 51.3-.5 5.2-2.8c9.8-5.1 12.2-11.6 12.3-32.5V163h-120v24.7zM318.5 104.6c-1.6.2-6.6.9-11 1.5-9.4 1.3-21 3.9-30.3 7-9.2 3-27.1 11.5-27.7 13.1-.3.7-.4 11.4-.3 23.7l.3 22.4 5-4c26.8-21.1 67.9-30 93.8-20.3 10.1 3.8 19.9 14.7 23.2 26 1.3 4.4 3.2 19.9 2.5 21-.3.5-4.4 1.5-9.1 2.1-28.3 3.7-72.2 10.3-78.3 11.9-32.6 8.3-52.1 26-59.2 53.5-2.5 9.8-2.6 33.4-.1 42.5 6.1 22.7 22.6 39.3 45.7 46 10.5 3.1 33.5 3.9 44.8 1.6 15.5-3.1 27.8-9.5 38.5-20 5-4.9 14.4-16.7 15.4-19.4 1.5-3.7 2.3 2.7 2.3 18.5V349h52v-84.8c0-92.5-.1-94-5.8-110.6-8.9-25.8-27.3-41-57.2-47.2-7.2-1.4-38-2.7-44.5-1.8zm55.3 140.9c.4 22.5-3.1 35-13.5 47.9-17.9 22.2-54.3 27.2-73.1 10.1-5.1-4.6-9.8-13.8-10.7-21-1.4-10.8 2.8-24.8 9.2-30.6 6.1-5.6 15.5-9.6 28.2-12 9.4-1.8 57.4-8.7 58.6-8.5.6.2 1.1 5.9 1.3 14.1zM571.5 104.7c-23.6 3-40.9 10.9-56.1 25.5-17.3 16.6-28.4 38.2-34.4 66.8-2.7 13-3.8 45.9-2.2 62 4 38.3 23.5 70.4 51.9 85.3 12.6 6.6 22.6 8.9 40.8 9.4 13.5.4 17.4.2 25.2-1.6 11.1-2.4 22.5-7 30.1-12.2 9.3-6.2 21-18.4 26.3-27.3 1.1-2 2.6-3.6 3.1-3.6 1.5 0 .2 40.4-1.6 50.5-5.5 30.3-24.1 49.6-55.3 57.1-9.2 2.2-33.7 3-44.4 1.5-16.1-2.4-34.7-8.6-49.7-16.7l-8.2-4.5.2 24.8.3 24.7 6.7 2.8c9 3.8 26.7 8.2 41.3 10.4 16.2 2.4 48.6 2.4 63.9 0 62.7-9.8 94.5-45 100.6-111.1.6-6.7 1-55.9 1-124.8V110h-54v16.5c0 9.1-.3 16.5-.7 16.5-.5 0-1.8-1.8-3.1-4-3.5-6.2-14.7-17.6-22.1-22.5-8.1-5.4-17.8-9.1-28.9-11-7.7-1.4-23.3-1.8-30.7-.8zm41 43.8c20.9 5.3 37.7 22.6 42.8 43.8 1.7 7.3 1.8 11 1.4 36.2-.5 30.8-1 34.4-7 46.8-11.3 23.8-30.6 36.1-56.2 36-29.1-.1-50.1-18.8-58.3-51.8-1.4-5.6-1.7-11.3-1.6-28.5.1-20 .3-22.2 2.7-31.4 4.5-16.8 9.4-25.8 20-36.4 6.8-7 16.1-12.2 26.3-14.6 7.9-1.9 22.6-2 29.9-.1zM872.8 105.1c-10.9 1.3-29.1 6.1-38.6 10.2-24.2 10.5-46.7 32.9-56.3 55.9-9.2 22.3-13.1 48.7-10.9 74.1 3.4 40.1 20.7 70.9 50.6 90.4 19.5 12.7 41.1 18.3 70.4 18.3 17.9 0 30.1-1.7 44.5-6.1 58.2-18 89-76.5 77.9-147.9-8.5-53.8-42.4-87.5-95.4-94.6-11.5-1.5-30.2-1.6-42.2-.3zm33.7 43.4c33.9 7.1 52.2 38.9 50.2 87.4-1.1 28.1-8.2 47.1-22.8 60.5-11.5 10.7-23.9 15-42.9 15-23.2 0-38.9-7-52.4-23.7-13.4-16.4-19.8-43.6-16.7-70.7 4.3-37.9 22.9-62.1 52.6-68.5 8.1-1.8 23.5-1.8 32 0z"/></svg>
