<svg xmlns="http://www.w3.org/2000/svg" viewBox="0 0 3418 3183"><path transform="translate(0, 100)" d="M2892.95 508.1q7-31.2 2.1-64.65 33.8-226.7-488.15-349.5Q2009.85 0 1448.55 0 887.2 0 490.35 93.95-31.8 216.75 2.05 443.45q-4.95 33.45 2.1 64.65L72.6 2567.05q1.3 38.25 22.45 70.2 21.1 31.75 56.05 47.9 1233.55 567.05 2467.25 55.9-23.2-4-46.4-10.65-144.15-41.05-278.4-108-138.8-69.4-271.5-150.05-132.15-79.65-249.7-180.05-117.7-100.4-217.15-218.85-69.2-82.55-133.5-169.05-19.55-26.25-38.4-52.9l-8-11q-24.3-33.85-41.8-59.55-14.85-22.05-27.6-41.8l-184.45-184.25 324.4-324.4 324.4 324.2-204 204.2q0 .2.2.4 0 .2.15.2 6.65 9.3 13.5 18.8 37.1 51.35 82.95 94.7 48.1 45.05 97.9 87.65 104.2 85.75 221.7 153.85 96.25 55.9 201.4 90.9 43.637 14.275 88.05 24.7 126.35 30.35 256.3 26.1 130.4-4.4 258.25-30.2 129.2-26.2 251.75-74.25 115.05-45.05 199.55-135.8 171.506-185.916 180.6-527.7.7-30.65-11.65-58.25t-35.2-47.65L2932.1 1004q-28.963-24.512-54.05-45.95l14.9-449.95m-2620.7-64.45v-.2q25.1-26.85 279.9-86.7Q923.35 270 1448.55 270t896.55 86.75q254.6 59.85 279.9 86.7-25.1 26.8-279.9 86.7-371.35 86.7-896.55 86.7-525.2 0-896.4-86.7-254.4-59.9-279.9-86.5m2591 960.05.15.2q1.052-44.855 2.35-91.9 43.154 34.847 97.65 75.4l181.25 155.85q-20.9 205.05-144.5 311.1-81.84 68.638-154.3 92.35 1.084-22.91 2.1-41.95-.6.394-1.2.75l16.5-501.8Z"/><path transform="translate(0, 100)" class="preserve" fill="#fff" style="opacity:.2" d="M3269.95 1977.95q37.1-51.5 65.25-105.15v-521.85l-366.05-317.65q-15.2 4.35-27.2 16.55-19 18.8-19 45.6v148.35q0 26.8 19 45.8 18.8 18.85 45.65 18.85h69.6v159.6l87.45 75.2q-30.25 167.35-87.45 250.85v119.2q0 26.85 19 45.85 18.8 18.8 45.65 18.8h148.1m-521.9 213.35.95-.55q-51.35 20.55-94.35 53.25 104.643-2.835 188.1-30.45 191.988-45.226 128.85-53.2h-69.55q-80.25 0-154 30.95m-176.1 539.1q-38.8-11.05-76.65-23.95.6 41.45 8.6 79.65 57.2-21.3 114.45-45.05-23.2-4-46.4-10.65M1679 2206.9q-2.45 8.55-2.45 18.1v148.3q0 26.8 19 45.8 18.8 18.85 45.65 18.85h69.55v522.15q139.05-17.85 278.05-49.25V2512.1q-33.5-19.6-66.75-39.75-132.15-79.65-249.7-180.05-48.3-41.1-93.35-85.4m618-1062.35q-.2 0-.2-.2-38.05-36.15-82.5-60.65l.55.15Q2169 1058 2119 1044.3l-.75-.15q-51.35-13.35-104-13.35h-267.2q-10.8 0-21.45.8l-57.65 7-56.45 16q-10.25 3.4-20.35 7.6l.95-.6q-73.6 29.3-129.9 83.9-.35 0-.35.35-56.5 53.45-89.4 128.15l.4-.75q-10.85 23.4-18.05 48.5l91.05-91.25 175.35 175.3q2.65-11.2 7.05-21.3l.35-.75q10.65-23.95 28.35-40.7.2-.4.75-.75 16.95-16.35 39.75-24.75.75-.35 1.5-.55 7.45-2.85 15.05-4.95l11.2-2.1q9.15-1.3 18.65-1.15h269.8q24.95-.55 47.75 8.6l.4.15q23 8.95 41.05 26.25l-.55-.75q17.1 17.1 27.95 41.05 0 .2.15.4 10.5 24.35 10.1 53.8v133.3q.2 30.05-9.3 55.75l.55-.95q-8.95 22.6-24.9 38.95l-.4.4q-16.35 16.35-39.15 26.05-7.25 2.65-14.85 4.55l-21.3 3.6q-8.15.6-16.9.6H1746.1q-25.1.35-48.1-8.75l-.75-.2q-22.6-8.75-39.75-23.95l-91.25 91.25q0 .2.2.4 0 .2.15.2 6.65 9.3 13.5 18.8 37.1 51.35 82.95 94.7 48.1 45.05 97.9 87.65 10.85 8.95 21.85 17.7h229.55q10.85 0 21.65-.75l58.6-7.25 18.25-4q3.8-.95 7.8-2.05h-.4q50-12.95 95.45-37.65.75-.6 1.9-.95 43.75-25.7 81-61.05l.4-.4q38.05-35.75 65.8-81.2l.2-.2q27.55-45.4 43.35-97.9.15-1.15.55-1.9 14.05-52.5 14.05-111.8v-133.3q0-59.35-14.05-111.65-.4-.75-.55-1.5-15.8-53.45-43.55-98.7-27.75-45.65-65.8-81.55M2086.5 784.2V577.5q-131.6 18.25-278 28.15V784.2q0 26.8 19 45.8 18.85 18.85 45.65 18.85h148.7q26.8 0 45.8-18.85 18.85-19 18.85-45.8m0-474.8V36.7Q1894.8 12.15 1674.25 4v110.65q0 26.8 19 45.85 18.85 18.8 45.65 18.8h69.6v102.15q146.4 9.65 278 27.95m694.45-54 .35-.8q3.05-6.85 6.85-13.1-89.75-63.7-253.45-113.35-4 8-7.6 16.35-34.05 74.65-34.25 164.3V394q115.6 31.75 132.15 49.45-16.35 17.3-129.1 48.65 3.8 32.7 12.55 63.15l-.2-.2q15.05 52.7 42.6 98.3l.2.2q27.55 46 66.15 82.15 37.3 35.55 82.75 61.25l.15.15q44.3 24.75 94.9 37.85.4.2.75.2 41.85 11.4 85.95 13.3l9.15-277.05q-20.75-1.15-40.15-8.75l-.75-.2q-23.55-9.1-41.25-25.45-17.5-17.1-27.95-40.7-10.25-24.15-10.25-54.2V308.8q0-29.85 10.45-53.4M309.5 2274.6q-.35 0-.35.4-56.5 53.4-89.4 128.15l.4-.75q-34.4 74.9-34.6 165.05v133.3q490.4 219.45 980.8 268.5 23.2-26.05 41.85-56.7l.15-.15q27.6-45.45 43.4-97.95.15-1.15.55-1.9 14.05-52.5 14.05-111.8v-133.3q0-59.35-14.05-111.65-.4-.75-.55-1.5-15.8-53.45-43.55-98.7-27.8-45.6-65.8-81.55-.2 0-.2-.2-38.05-36.15-82.55-60.65l.6.2q-45.85-25.9-95.85-39.55l-.75-.2q-51.35-13.3-104-13.3h-267.2q-80.25 0-154 30.95l.95-.55q-73.6 29.3-129.9 83.85m281.65 163.35h269.8q24.9-.55 47.75 8.55l.35.2q23.05 8.95 41.1 26.25l-.6-.75q17.15 17.1 28 41.05 0 .2.15.4 10.45 24.3 10.1 53.8v133.3q.2 30.05-9.3 55.7l.55-.95q-8.95 22.65-24.9 39l-.4.35q-16.35 16.35-39.15 26.05-24.75 9.15-54.95 9.15H591.5q-25.1.35-48.1-8.75l-.75-.2q-23.6-9.1-41.25-25.45-17.5-17.15-27.95-40.7-10.3-24.15-10.3-54.2v-133.3q0-29.85 10.45-53.45l.4-.75q10.65-23.95 28.35-40.7.15-.35.75-.75 16.9-16.35 39.75-24.7.75-.4 1.5-.6 22.65-8.95 46.8-8.55M51.3 1226.5q-11.4-18.65-24.35-35.75l19.95 599.9q2.1-3.6 4.4-7.2l.2-.2q27.55-45.45 43.35-97.95.2-1.1.55-1.9 14.1-52.45 14.1-111.8v-133.3q0-59.3-14.1-111.6-.35-.75-.55-1.55-15.8-53.4-43.55-98.65m534.9-195.7q-7.45 0-14.25 1.55-19.05 3.4-33.3 17.85-19 18.85-19 45.65v148.3q0 26.85 19 45.85 18.85 18.8 45.65 18.8h69.6v604.9q0 26.8 19 45.8 18.85 18.85 45.65 18.85h148.7q7.6 0 14.65-1.5 18.6-3.45 33.05-17.7 18.85-19 18.85-45.85v-817.85q0-26.8-18.85-45.6-19-19.05-45.8-19.05H586.2m-45.65-842.35q.75-.4 1.55-.6 22.6-8.9 46.75-8.55H858.7q24.9-.55 47.7 8.55l.4.2q23 8.95 41.05 26.25l-.55-.75q17.1 17.1 27.95 41.05 0 .2.2.4 7 16.15 9.1 34.6 132.55-12.15 278.2-16.75-3.05-39.55-12.75-75.65-.35-.75-.55-1.55-15.8-53.4-43.55-98.65-27.75-45.65-65.8-81.6-.2 0-.2-.2-3.8-3.6-7.6-7-361.85 19.35-641.95 85.75Q313.7 135.6 200.75 189q-17.3 56.1-17.5 119.8v133.3q.2 59.9 15.6 113.15l-.2-.2q15.05 52.7 42.6 98.3l.2.2q27.55 46 66.15 82.15 37.3 35.55 82.75 61.25l.15.15q44.35 24.75 94.9 37.85.4.2.75.2 50.4 13.7 104.05 13.7h267.15q53.05 0 104.4-13.7h-.4q50-12.95 95.45-37.65.8-.55 1.9-.95 43.75-25.65 81.05-61.05.15-.2.35-.35 38.05-35.75 65.8-81.2l.2-.2q11.95-19.8 21.85-40.9-249.45-9.7-459-41.45h-179.7q-25.1.4-48.15-8.75l-.75-.2q-23.55-9.1-41.25-25.45-11.2-10.85-19.4-24.35-185.75-46.4-207.45-69v-.2q20.15-21.5 188.65-64.5V308.8q0-29.85 10.45-53.4l.35-.8q10.65-23.95 28.35-40.7.2-.35.75-.75 16.95-16.35 39.75-24.7Z"/></svg>
