<svg xmlns="http://www.w3.org/2000/svg" viewBox="0 0 22 32"><path d="M8.96 0.416c-2.496 0.256-4.64 1.152-6.976 2.848l-1.696 1.248 1.056 1.024 0.992 1.056 0.8-0.672c4.064-3.648 11.2-3.776 15.328-0.32l1.056 0.896 0.928-0.928 0.992-0.928-0.736-0.8c-0.448-0.48-1.888-1.344-3.2-2.048-2.752-1.312-5.312-1.76-8.544-1.376zM9.28 5.824c-1.632 0.288-3.872 1.376-4.512 2.176-0.416 0.48-0.352 0.672 0.384 1.376l0.8 0.832 1.664-0.832c2.208-1.152 4.32-1.152 6.56 0l1.632 0.832 0.992-0.928 0.928-0.896-0.768-0.672c-2.016-1.632-5.12-2.4-7.68-1.888zM5.984 12.8c-0.48 0.448-0.544 1.76-0.544 9.152 0 10.528-0.48 9.696 5.696 9.696 3.296 0 4.256-0.096 4.672-0.544 0.48-0.416 0.544-1.76 0.544-9.312 0-8.384-0.032-8.864-0.672-9.184-0.352-0.192-2.56-0.352-4.928-0.352-3.392 0-4.352 0.096-4.768 0.544zM12.768 16.16c0.48 0.448 0.864 1.248 0.864 1.696 0 1.152-1.408 2.56-2.528 2.56-1.312 0-1.888-0.32-2.464-1.376-1.344-2.688 1.984-5.056 4.128-2.88z"></path></svg>
