<svg xmlns="http://www.w3.org/2000/svg" viewBox="0 0 1016 1016"><path d="M819 125L833 125 833 126.7 837.9 126.7 837.9 127.4 839.5 127.4 839.5 128.2 845.3 128.2 845.3 129.1 848.5 129.1 848.5 129.9 850.1 129.9 850.1 130.7 854.3 130.7 854.3 131.5 857.5 131.5 857.5 132.4 858.3 132.4 858.3 133.2 862.4 133.2 862.4 134 864.9 134 864.9 134.8 866.5 134.8 866.5 135.6 869.8 135.6 869.8 136.4 872.1 136.4 872.1 137.2 873.1 137.2 873.1 138 876.3 138 876.3 138.8 877.9 138.8 877.9 139.6 879.6 139.6 879.6 140.5 882.1 140.5 882.1 141.3 884.4 141.3 884.4 142.1 885.3 142.1 885.3 142.9 887.7 142.9 887.7 143.8 889.3 143.8 889.3 144.6 890.2 144.6 890.2 145.4 892.6 145.4 892.6 146.2 894.3 146.2 894.3 147.1 895.1 147.1 895.1 147.8 897.6 147.8 897.6 148.6 899.2 148.6 899.2 149.5 899.9 149.5 899.9 150.3 901.6 150.3 901.6 151.1 903.2 151.1 903.2 151.8 904 151.8 904 152.6 906.5 152.6 906.5 153.5 908.2 153.5 908.2 154.3 909 154.3 909 155.1 910.6 155.1 910.6 156 912.2 156 912.2 157.6 913.9 157.6 913.9 158.4 915.5 158.4 915.5 159.2 916.3 159.2 916.3 160 918 160 918 160.9 919.6 160.9 919.6 161.6 920.4 161.6 920.4 162.4 921.3 162.4 921.3 163.3 922.9 163.3 922.9 164.1 923.7 164.1 923.7 164.9 924.5 164.9 924.5 165.7 926.2 165.7 926.2 166.5 927 166.5 927 167.4 928.6 167.4 928.6 168.2 929.4 168.2 929.4 169 930.2 169 930.2 169.8 931 169.8 931 170.6 932.7 170.6 932.7 171.4 933.5 171.4 933.5 172.2 934.3 172.2 934.3 173 936 173 936 173.8 936.8 173.8 936.8 174.7 937.6 174.7 937.6 175.5 938.4 175.5 938.4 176.3 939.3 176.3 939.3 177.1 940 177.1 940 177.9 941.7 177.9 941.7 178.8 942.5 178.8 942.5 179.6 943.3 179.6 943.3 180.4 944.1 180.4 944.1 181.3 944.9 181.3 944.9 182.1 945.8 182.1 945.8 182.8 946.5 182.8 946.5 183.7 947.4 183.7 947.4 184.5 948.2 184.5 948.2 185.3 949.9 185.3 949.9 186.9 950.7 186.9 950.7 187.6 952.3 187.6 952.3 189.3 953.2 189.3 953.2 190.1 954.8 190.1 954.8 191.8 955.5 191.8 955.5 192.6 957.2 192.6 957.2 194.2 958 194.2 958 195.1 958.8 195.1 958.8 195.9 959.6 195.9 959.6 196.6 960.5 196.6 960.5 197.5 961.3 197.5 961.3 198.3 962.1 198.3 962.1 199.1 962.9 199.1 962.9 200 963.8 200 963.8 200.7 964.6 200.7 964.6 202.4 965.4 202.4 965.4 203.2 966.2 203.2 966.2 204 967.1 204 967.1 205.6 967.8 205.6 967.8 206.5 968.7 206.5 968.7 207.2 969.5 207.2 969.5 208.9 970.3 208.9 970.3 209.7 971.9 209.7 971.9 211.3 972.7 211.3 972.7 212.1 973.6 212.1 973.6 213.8 974.3 213.8 974.3 215.4 975.1 215.4 975.1 216.3 976 216.3 976 217.1 976.8 217.1 976.8 218.7 977.7 218.7 977.7 219.5 978.5 219.5 978.5 220.3 979.3 220.3 979.3 221.9 980.1 221.9 980.1 223.5 981 223.5 981 224.3 981.8 224.3 981.8 226 982.6 226 982.6 226.8 983.3 226.8 983.3 227.6 984.2 227.6 984.2 230.1 985 230.1 985 230.9 985.8 230.9 985.8 231.7 986.6 231.7 986.6 233.3 987.4 233.3 987.4 234.9 988.3 234.9 988.3 236.6 989.1 236.6 989.1 238.2 989.9 238.2 989.9 239 990.7 239 990.7 239.9 991.5 239.9 991.5 243.1 992.4 243.1 992.4 243.9 993.2 243.9 993.2 244.7 994 244.7 994 248 994.9 248 994.9 248.8 995.6 248.8 995.6 249.6 996.4 249.6 996.4 252.9 997.3 252.9 997.3 254.6 998.1 254.6 998.1 255.4 998.9 255.4 998.9 257.7 999.7 257.7 999.7 260.1 1000.4 260.1 1000.4 261 1001.4 261 1001.4 264.3 1002.1 264.3 1002.1 266 1002.9 266 1002.9 266.7 1003.8 266.7 1003.8 269.9 1004.6 269.9 1004.6 273.2 1005.5 273.2 1005.5 274 1006.3 274 1006.3 277.3 1007.1 277.3 1007.1 280.5 1007.9 280.5 1007.9 282.2 1008.8 282.2 1008.8 286.3 1009.6 286.3 1009.6 289.6 1010.4 289.6 1010.4 291.2 1011.1 291.2 1011.1 294.3 1012 294.3 1012 300.1 1012.8 300.1 1012.8 301.7 1013.6 301.7 1013.6 305.8 1015.2 305.8 1015.2 320.4 1013.6 320.4 1013.6 314.8 1012.8 314.8 1012.8 307.5 1012 307.5 1012 304.2 1011.1 304.2 1011.1 300.1 1010.4 300.1 1010.4 295.1 1009.6 295.1 1009.6 292.7 1008.8 292.7 1008.8 289.6 1007.9 289.6 1007.9 285.4 1007.1 285.4 1007.1 283.8 1006.3 283.8 1006.3 281.3 1005.5 281.3 1005.5 277.3 1004.6 277.3 1004.6 275.7 1003.8 275.7 1003.8 274 1002.9 274 1002.9 270.8 1002.1 270.8 1002.1 268.4 1001.4 268.4 1001.4 266.7 1000.4 266.7 1000.4 264.3 999.7 264.3 999.7 262.6 998.9 262.6 998.9 260.1 998.1 260.1 998.1 257.7 997.3 257.7 997.3 256.9 996.4 256.9 996.4 255.4 995.6 255.4 995.6 252.9 994.9 252.9 994.9 251.3 994 251.3 994 249.6 993.2 249.6 993.2 247.1 992.4 247.1 992.4 246.3 991.5 246.3 991.5 244.7 990.7 244.7 990.7 243.1 989.9 243.1 989.9 241.5 989.1 241.5 989.1 239.9 988.3 239.9 988.3 238.2 987.4 238.2 987.4 237.4 986.6 237.4 986.6 235.7 985.8 235.7 985.8 234.2 985 234.2 985 232.5 984.2 232.5 984.2 231.7 983.3 231.7 983.3 230.1 982.6 230.1 982.6 228.4 981.8 228.4 981.8 227.6 981 227.6 981 226 980.1 226 980.1 225.1 979.3 225.1 979.3 223.5 978.5 223.5 978.5 221.9 977.7 221.9 977.7 221.1 976.8 221.1 976.8 220.3 976 220.3 976 218.7 975.1 218.7 975.1 217.9 974.3 217.9 974.3 217.1 973.6 217.1 973.6 215.4 972.7 215.4 972.7 214.6 971.9 214.6 971.9 212.9 971.1 212.9 971.1 212.1 970.3 212.1 970.3 211.3 969.5 211.3 969.5 209.7 968.7 209.7 968.7 208.9 967.8 208.9 967.8 208 967.1 208 967.1 207.2 966.2 207.2 966.2 205.6 965.4 205.6 965.4 204.8 964.6 204.8 964.6 204 963.8 204 963.8 203.2 962.9 203.2 962.9 202.4 962.1 202.4 962.1 200.7 961.3 200.7 961.3 200 960.5 200 960.5 199.1 959.6 199.1 959.6 198.3 958.8 198.3 958.8 197.5 958 197.5 958 196.6 957.2 196.6 957.2 195.9 956.4 195.9 956.4 194.2 955.5 194.2 955.5 193.4 954.8 193.4 954.8 192.6 954 192.6 954 191.8 953.2 191.8 953.2 191 952.3 191 952.3 190.1 951.5 190.1 951.5 189.3 950.7 189.3 950.7 188.5 949.9 188.5 949.9 187.6 949 187.6 949 186.9 948.2 186.9 948.2 186.1 946.5 186.1 946.5 185.3 945.8 185.3 945.8 184.5 944.9 184.5 944.9 183.7 944.1 183.7 944.1 182.8 943.3 182.8 943.3 182.1 942.5 182.1 942.5 181.3 941.7 181.3 941.7 180.4 940.9 180.4 940.9 179.6 940 179.6 940 178.8 938.4 178.8 938.4 177.9 937.6 177.9 937.6 177.1 936.8 177.1 936.8 176.3 936 176.3 936 175.5 935.1 175.5 935.1 174.7 934.3 174.7 934.3 173.8 932.7 173.8 932.7 173 931.8 173 931.8 172.2 931 172.2 931 171.4 930.2 171.4 930.2 170.6 928.6 170.6 928.6 169.8 927.7 169.8 927.7 169 927 169 927 168.2 925.4 168.2 925.4 167.4 924.5 167.4 924.5 166.5 922.9 166.5 922.9 165.7 922.1 165.7 922.1 164.9 921.3 164.9 921.3 164.1 919.6 164.1 919.6 163.3 918.8 163.3 918.8 162.4 918 162.4 918 161.6 916.3 161.6 916.3 160.9 914.7 160.9 914.7 160 913.9 160 913.9 159.2 912.2 159.2 912.2 158.4 911.5 158.4 911.5 157.6 909.9 157.6 909.9 156.8 908.2 156.8 908.2 156 907.4 156 907.4 155.1 905.7 155.1 905.7 154.3 904 154.3 904 153.5 902.4 153.5 902.4 152.6 901.6 152.6 901.6 151.8 899.9 151.8 899.9 151.1 898.4 151.1 898.4 150.3 896.8 150.3 896.8 149.5 895.1 149.5 895.1 148.6 893.5 148.6 893.5 147.8 892.6 147.8 892.6 147.1 890.2 147.1 890.2 146.2 888.5 146.2 888.5 145.4 886.9 145.4 886.9 144.6 885.3 144.6 885.3 143.8 883.7 143.8 883.7 142.9 882.1 142.9 882.1 142.1 879.6 142.1 879.6 141.3 877.1 141.3 877.1 140.5 875.4 140.5 875.4 139.6 873.1 139.6 873.1 138.8 871.4 138.8 871.4 138 869 138 869 137.2 865.7 137.2 865.7 136.4 864 136.4 864 135.6 862.4 135.6 862.4 134.8 858.3 134.8 858.3 134 855.9 134 855.9 133.2 854.3 133.2 854.3 132.4 850.1 132.4 850.1 131.5 846.8 131.5 846.8 130.7 844.3 130.7 844.3 129.9 839.5 129.9 839.5 129.1 835.4 129.1 835.4 128.2 832.1 128.2 832.1 127.4 824.8 127.4 824.8 126.7 819 126.7 819 125M196.2 875.1L181.5 875.1 181.5 873.4 177.4 873.4 177.4 872.6 175.7 872.6 175.7 871.8 170.1 871.8 170.1 871 166.8 871 166.8 870.2 165.1 870.2 165.1 869.4 161 869.4 161 868.6 157.7 868.6 157.7 867.8 156.9 867.8 156.9 866.9 152.9 866.9 152.9 866.2 150.4 866.2 150.4 865.3 148.8 865.3 148.8 864.5 145.4 864.5 145.4 863.7 143.1 863.7 143.1 862.8 142.3 862.8 142.3 862.1 139 862.1 139 861.3 137.3 861.3 137.3 860.4 135.7 860.4 135.7 859.6 133.2 859.6 133.2 858.8 130.8 858.8 130.8 857.9 130 857.9 130 857.1 127.6 857.1 127.6 856.3 126 856.3 126 855.5 125.1 855.5 125.1 854.7 122.6 854.7 122.6 853.9 121 853.9 121 853.1 120.1 853.1 120.1 852.3 117.6 852.3 117.6 851.5 116 851.5 116 850.7 115.3 850.7 115.3 849.9 113.6 849.9 113.6 849 112 849 112 848.2 111.2 848.2 111.2 847.4 108.7 847.4 108.7 846.5 107.1 846.5 107.1 845.7 106.3 845.7 106.3 845 104.6 845 104.6 844.1 103 844.1 103 842.5 101.3 842.5 101.3 841.7 99.8 841.7 99.8 840.9 98.9 840.9 98.9 840 97.3 840 97.3 839.2 95.7 839.2 95.7 838.4 94.8 838.4 94.8 837.6 94 837.6 94 836.8 92.4 836.8 92.4 836 91.5 836 91.5 835.1 90.7 835.1 90.7 834.4 89.1 834.4 89.1 833.6 88.2 833.6 88.2 832.7 86.7 832.7 86.7 831.9 85.8 831.9 85.8 831.1 85 831.1 85 830.3 84.2 830.3 84.2 829.5 82.6 829.5 82.6 828.6 81.7 828.6 81.7 827.9 80.9 827.9 80.9 827.1 79.3 827.1 79.3 826.2 78.5 826.2 78.5 825.4 77.6 825.4 77.6 824.6 76.8 824.6 76.8 823.8 76 823.8 76 822.9 74.4 822.9 74.4 822.1 73.5 822.1 73.5 821.3 72.7 821.3 72.7 820.5 72 820.5 72 819.7 71.1 819.7 71.1 818.9 70.4 818.9 70.4 818.1 69.5 818.1 69.5 817.3 68.7 817.3 68.7 816.5 67.9 816.5 67.9 815.7 67 815.7 67 814.8 65.4 814.8 65.4 813.2 64.6 813.2 64.6 812.4 62.9 812.4 62.9 810.7 62.1 810.7 62.1 809.9 60.4 809.9 60.4 808.3 59.7 808.3 59.7 807.4 58.1 807.4 58.1 805.8 57.2 805.8 57.2 805 56.4 805 56.4 804.2 55.6 804.2 55.6 803.4 54.8 803.4 54.8 802.6 54 802.6 54 801.8 53.1 801.8 53.1 801 52.3 801 52.3 800.1 51.5 800.1 51.5 799.4 50.7 799.4 50.7 797.7 49.8 797.7 49.8 796.9 49 796.9 49 796.1 48.2 796.1 48.2 794.5 47.4 794.5 47.4 793.6 46.6 793.6 46.6 792.9 45.7 792.9 45.7 791.2 44.9 791.2 44.9 790.4 43.3 790.4 43.3 788.8 42.6 788.8 42.6 787.9 41.7 787.9 41.7 787.1 40.9 787.1 40.9 784.6 40.1 784.6 40.1 783.8 39.2 783.8 39.2 783.1 38.5 783.1 38.5 781.5 37.6 781.5 37.6 780.6 36.8 780.6 36.8 779.8 36 779.8 36 778.2 35.1 778.2 35.1 776.5 34.3 776.5 34.3 775.7 33.5 775.7 33.5 774.1 32.6 774.1 32.6 773.2 31.9 773.2 31.9 772.4 31.1 772.4 31.1 770.8 30.3 770.8 30.3 769.2 29.4 769.2 29.4 768.4 28.6 768.4 28.6 766.8 27.8 766.8 27.8 765.1 27 765.1 27 763.5 26.2 763.5 26.2 761.8 25.3 761.8 25.3 761.1 24.5 761.1 24.5 760.3 23.7 760.3 23.7 757 22.9 757 22.9 756.2 22.1 756.2 22.1 755.3 21.3 755.3 21.3 752.1 20.4 752.1 20.4 751.3 19.6 751.3 19.6 750.4 18.8 750.4 18.8 747.2 18 747.2 18 745.6 17.1 745.6 17.1 744.8 16.4 744.8 16.4 742.4 15.5 742.4 15.5 739.9 14.8 739.9 14.8 739 13.9 739 13.9 735.8 13.1 735.8 13.1 734.1 12.3 734.1 12.3 733.4 11.4 733.4 11.4 730.1 10.7 730.1 10.7 726.8 9.8 726.8 9.8 726.1 9 726.1 9 722.8 8.2 722.8 8.2 719.6 7.4 719.6 7.4 717.9 6.5 717.9 6.5 713.8 5.7 713.8 5.7 710.6 4.9 710.6 4.9 709 4.1 709 4.1 705.7 3.3 705.7 3.3 699.9 2.5 699.9 2.5 698.3 1.6 698.3 1.6 693.5 0 693.5 0 679.6 1.6 679.6 1.6 685.3 2.5 685.3 2.5 692.6 3.3 692.6 3.3 695.9 4.1 695.9 4.1 699.9 4.9 699.9 4.9 704.9 5.7 704.9 5.7 707.3 6.5 707.3 6.5 710.6 7.4 710.6 7.4 714.6 8.2 714.6 8.2 716.3 9 716.3 9 718.7 9.8 718.7 9.8 722.8 10.7 722.8 10.7 724.4 11.4 724.4 11.4 726.1 12.3 726.1 12.3 729.3 13.1 729.3 13.1 731.7 13.9 731.7 13.9 733.4 14.8 733.4 14.8 735.8 15.5 735.8 15.5 737.4 16.4 737.4 16.4 739.9 17.1 739.9 17.1 742.4 18 742.4 18 743.2 18.8 743.2 18.8 744.8 19.6 744.8 19.6 747.2 20.4 747.2 20.4 748.8 21.3 748.8 21.3 750.4 22.1 750.4 22.1 752.9 22.9 752.9 22.9 753.8 23.7 753.8 23.7 755.3 24.5 755.3 24.5 757 25.3 757 25.3 758.6 26.2 758.6 26.2 760.3 27 760.3 27 761.8 27.8 761.8 27.8 762.7 28.6 762.7 28.6 764.3 29.4 764.3 29.4 766 30.3 766 30.3 767.6 31.1 767.6 31.1 768.4 31.9 768.4 31.9 770 32.6 770 32.6 771.6 33.5 771.6 33.5 772.4 34.3 772.4 34.3 774.1 35.1 774.1 35.1 774.9 36 774.9 36 776.5 36.8 776.5 36.8 778.2 37.6 778.2 37.6 779 38.5 779 38.5 779.8 39.2 779.8 39.2 781.5 40.1 781.5 40.1 782.3 40.9 782.3 40.9 783.1 41.7 783.1 41.7 784.6 42.6 784.6 42.6 785.5 43.3 785.5 43.3 787.1 44.2 787.1 44.2 787.9 44.9 787.9 44.9 788.8 45.7 788.8 45.7 790.4 46.6 790.4 46.6 791.2 47.4 791.2 47.4 792 48.2 792 48.2 792.9 49 792.9 49 794.5 49.8 794.5 49.8 795.3 50.7 795.3 50.7 796.1 51.5 796.1 51.5 796.9 52.3 796.9 52.3 797.7 53.1 797.7 53.1 799.4 54 799.4 54 800.1 54.8 800.1 54.8 801 55.6 801 55.6 801.8 56.4 801.8 56.4 802.6 57.2 802.6 57.2 803.4 58.1 803.4 58.1 804.2 58.9 804.2 58.9 805.8 59.7 805.8 59.7 806.7 60.4 806.7 60.4 807.4 61.3 807.4 61.3 808.3 62.1 808.3 62.1 809.1 62.9 809.1 62.9 809.9 63.8 809.9 63.8 810.7 64.6 810.7 64.6 811.5 65.4 811.5 65.4 812.4 66.3 812.4 66.3 813.2 67 813.2 67 814 68.7 814 68.7 814.8 69.5 814.8 69.5 815.7 70.4 815.7 70.4 816.5 71.1 816.5 71.1 817.3 72 817.3 72 818.1 72.7 818.1 72.7 818.9 73.5 818.9 73.5 819.7 74.4 819.7 74.4 820.5 75.2 820.5 75.2 821.3 76 821.3 76 822.1 77.6 822.1 77.6 822.9 78.5 822.9 78.5 823.8 79.3 823.8 79.3 824.6 80.1 824.6 80.1 825.4 80.9 825.4 80.9 826.2 82.6 826.2 82.6 827.1 83.4 827.1 83.4 827.9 84.2 827.9 84.2 828.6 85 828.6 85 829.5 86.7 829.5 86.7 830.3 87.5 830.3 87.5 831.1 88.2 831.1 88.2 831.9 89.9 831.9 89.9 832.7 90.7 832.7 90.7 833.6 92.4 833.6 92.4 834.4 93.2 834.4 93.2 835.1 94 835.1 94 836 95.7 836 95.7 836.8 96.5 836.8 96.5 837.6 97.3 837.6 97.3 838.4 98.9 838.4 98.9 839.2 100.5 839.2 100.5 840 101.3 840 101.3 840.9 103 840.9 103 841.7 103.8 841.7 103.8 842.5 105.4 842.5 105.4 843.3 107.1 843.3 107.1 844.1 107.9 844.1 107.9 845 109.5 845 109.5 845.7 111.2 845.7 111.2 846.5 112.8 846.5 112.8 847.4 113.6 847.4 113.6 848.2 115.3 848.2 115.3 849 116.9 849 116.9 849.9 117.6 849.9 117.6 850.7 120.1 850.7 120.1 851.5 121.8 851.5 121.8 852.3 122.6 852.3 122.6 853.1 125.1 853.1 125.1 853.9 126.7 853.9 126.7 854.7 128.3 854.7 128.3 855.5 130.8 855.5 130.8 856.3 132.4 856.3 132.4 857.1 133.2 857.1 133.2 857.9 135.7 857.9 135.7 858.8 138.2 858.8 138.2 859.6 139.8 859.6 139.8 860.4 142.3 860.4 142.3 861.3 143.8 861.3 143.8 862.1 145.4 862.1 145.4 862.8 148.8 862.8 148.8 863.7 151.3 863.7 151.3 864.5 152.9 864.5 152.9 865.3 156.9 865.3 156.9 866.2 159.4 866.2 159.4 866.9 161 866.9 161 867.8 165.1 867.8 165.1 868.6 168.4 868.6 168.4 869.4 170.9 869.4 170.9 870.2 175.7 870.2 175.7 871 179.9 871 179.9 871.8 183.2 871.8 183.2 872.6 190.4 872.6 190.4 873.4 196.2 873.4 196.2 875.1M710.4 392.1L721.8 392.1 721.8 392.9 723.5 392.9 723.5 393.8 725.1 393.8 725.1 394.6 727.5 394.6 727.5 395.4 729.1 395.4 729.1 396.3 730.8 396.3 730.8 397 732.4 397 732.4 397.8 733.2 397.8 733.2 398.7 734.1 398.7 734.1 399.4 735.7 399.4 735.7 400.2 736.5 400.2 736.5 401.1 737.4 401.1 737.4 401.9 738.2 401.9 738.2 402.6 739 402.6 739 404.3 739.7 404.3 739.7 405.1 740.6 405.1 740.6 406 741.4 406 741.4 407.6 742.2 407.6 742.2 409.3 743.1 409.3 743.1 410.9 743.8 410.9 743.8 412.6 744.7 412.6 744.7 416.5 745.5 416.5 745.5 418.2 746.3 418.2 746.3 419.8 747.1 419.8 747.1 422.3 746.3 422.3 746.3 423.9 747.1 423.9 747.1 577.8 746.3 577.8 746.3 580.2 745.5 580.2 745.5 582.7 744.7 582.7 744.7 586 743.8 586 743.8 588.4 743.1 588.4 743.1 589.3 742.2 589.3 742.2 591.6 741.4 591.6 741.4 593.3 740.6 593.3 740.6 594.1 739.7 594.1 739.7 594.9 739 594.9 739 595.7 738.2 595.7 738.2 596.5 737.4 596.5 737.4 597.4 736.5 597.4 736.5 598.2 735.7 598.2 735.7 599 734.9 599 734.9 599.8 734.1 599.8 734.1 600.7 732.4 600.7 732.4 601.4 731.5 601.4 731.5 602.3 730 602.3 730 603.1 728.3 603.1 728.3 603.9 726.7 603.9 726.7 604.7 724.2 604.7 724.2 605.5 720.1 605.5 720.1 606.3 716.9 606.3 716.9 607.1 714.4 607.1 714.4 607.9 712.8 607.9 712.8 607.1 707.9 607.1 707.9 607.9 523.2 607.9 523.2 607.1 519 607.1 519 607.9 516.6 607.9 516.6 607.1 515 607.1 515 606.3 512.5 606.3 512.5 605.5 506.8 605.5 506.8 604.7 505.1 604.7 505.1 603.9 504.3 603.9 504.3 603.1 501.9 603.1 501.9 602.3 500.2 602.3 500.2 601.4 499.5 601.4 499.5 600.7 497.9 600.7 497.9 599.8 497 599.8 497 599 496.2 599 496.2 598.2 495.4 598.2 495.4 597.4 494.6 597.4 494.6 596.5 493.8 596.5 493.8 595.7 492.9 595.7 492.9 594.9 492.1 594.9 492.1 594.1 491.3 594.1 491.3 592.4 490.5 592.4 490.5 591.6 489.6 591.6 489.6 590.1 488.8 590.1 488.8 588.4 487.9 588.4 487.9 586.8 487.2 586.8 487.2 585.1 486.4 585.1 486.4 580.2 485.6 580.2 485.6 577.8 484.7 577.8 484.7 575.4 484 575.4 484 573.8 484.7 573.8 484.7 571.3 484 571.3 484 426.4 484.7 426.4 484.7 423.9 484 423.9 484 422.3 484.7 422.3 484.7 419.8 485.6 419.8 485.6 417.4 486.4 417.4 486.4 414.1 487.2 414.1 487.2 411.7 487.9 411.7 487.9 410.9 488.8 410.9 488.8 408.5 489.6 408.5 489.6 406.8 490.5 406.8 490.5 406 491.3 406 491.3 404.3 492.1 404.3 492.1 403.5 492.9 403.5 492.9 402.6 493.8 402.6 493.8 401.9 494.6 401.9 494.6 401.1 495.4 401.1 495.4 400.2 496.2 400.2 496.2 399.4 497.9 399.4 497.9 397.8 499.5 397.8 499.5 397 501.1 397 501.1 396.3 502.7 396.3 502.7 395.4 504.3 395.4 504.3 394.6 506.8 394.6 506.8 393.8 508.5 393.8 508.5 392.9 512.5 392.9 512.5 392.1 521.5 392.1 521.5 391.3 710.4 391.3 710.4 392.1M1015.2 320.4L1015.2 679.6 1013.6 679.6 1013.6 685.3 1012.8 685.3 1012.8 692.6 1012 692.6 1012 695.9 1011.1 695.9 1011.1 699.9 1010.4 699.9 1010.4 704.9 1009.6 704.9 1009.6 707.3 1008.8 707.3 1008.8 710.6 1007.9 710.6 1007.9 714.6 1007.1 714.6 1007.1 716.3 1006.3 716.3 1006.3 718.7 1005.5 718.7 1005.5 722.8 1004.6 722.8 1004.6 724.4 1003.8 724.4 1003.8 726.8 1002.9 726.8 1002.9 729.3 1002.1 729.3 1002.1 731.7 1001.4 731.7 1001.4 733.4 1000.4 733.4 1000.4 735.8 999.7 735.8 999.7 737.4 998.9 737.4 998.9 739.9 998.1 739.9 998.1 742.4 997.3 742.4 997.3 743.2 996.4 743.2 996.4 744.8 995.6 744.8 995.6 747.2 994.9 747.2 994.9 748.8 994 748.8 994 750.4 993.2 750.4 993.2 752.9 992.4 752.9 992.4 753.8 991.5 753.8 991.5 755.3 990.7 755.3 990.7 757 989.9 757 989.9 758.6 989.1 758.6 989.1 760.3 988.3 760.3 988.3 761.8 987.4 761.8 987.4 762.7 986.6 762.7 986.6 764.3 985.8 764.3 985.8 766 985 766 985 767.6 984.2 767.6 984.2 768.4 983.3 768.4 983.3 770 982.6 770 982.6 771.6 981.8 771.6 981.8 772.4 981 772.4 981 774.1 980.1 774.1 980.1 774.9 979.3 774.9 979.3 776.5 978.5 776.5 978.5 778.2 977.7 778.2 977.7 779 976.8 779 976.8 779.8 976 779.8 976 781.5 975.1 781.5 975.1 782.3 974.3 782.3 974.3 783.1 973.6 783.1 973.6 784.6 972.7 784.6 972.7 785.5 971.9 785.5 971.9 787.1 971.1 787.1 971.1 787.9 970.3 787.9 970.3 788.8 969.5 788.8 969.5 790.4 968.7 790.4 968.7 791.2 967.8 791.2 967.8 792 967.1 792 967.1 792.9 966.2 792.9 966.2 794.5 965.4 794.5 965.4 795.3 964.6 795.3 964.6 796.1 963.8 796.1 963.8 796.9 962.9 796.9 962.9 797.7 962.1 797.7 962.1 799.4 961.3 799.4 961.3 800.1 960.5 800.1 960.5 801 959.6 801 959.6 801.8 958.8 801.8 958.8 802.6 958 802.6 958 803.4 957.2 803.4 957.2 804.2 956.4 804.2 956.4 805.8 955.5 805.8 955.5 806.7 954.8 806.7 954.8 807.4 954 807.4 954 808.3 953.2 808.3 953.2 809.1 952.3 809.1 952.3 809.9 951.5 809.9 951.5 810.7 950.7 810.7 950.7 811.5 949.9 811.5 949.9 812.4 949 812.4 949 813.2 948.2 813.2 948.2 814 946.5 814 946.5 815.7 944.9 815.7 944.9 816.5 944.1 816.5 944.1 817.3 943.3 817.3 943.3 818.1 942.5 818.1 942.5 818.9 941.7 818.9 941.7 819.7 940.9 819.7 940.9 820.5 940 820.5 940 821.3 939.3 821.3 939.3 822.1 937.6 822.1 937.6 822.9 936.8 822.9 936.8 823.8 936 823.8 936 824.6 935.1 824.6 935.1 825.4 934.3 825.4 934.3 826.2 932.7 826.2 932.7 827.1 931.8 827.1 931.8 827.9 931 827.9 931 828.6 930.2 828.6 930.2 829.5 928.6 829.5 928.6 830.3 927.7 830.3 927.7 831.1 927 831.1 927 831.9 925.4 831.9 925.4 832.7 924.5 832.7 924.5 833.6 922.9 833.6 922.9 834.4 922.1 834.4 922.1 835.1 921.3 835.1 921.3 836 919.6 836 919.6 836.8 918.8 836.8 918.8 837.6 918 837.6 918 838.4 916.3 838.4 916.3 839.2 914.7 839.2 914.7 840 913.9 840 913.9 840.9 912.2 840.9 912.2 841.7 911.5 841.7 911.5 842.5 909.9 842.5 909.9 843.3 908.2 843.3 908.2 844.1 907.4 844.1 907.4 845 905.7 845 905.7 845.7 904 845.7 904 846.5 902.4 846.5 902.4 847.4 901.6 847.4 901.6 848.2 899.9 848.2 899.9 849 898.4 849 898.4 849.9 897.6 849.9 897.6 850.7 895.1 850.7 895.1 851.5 893.5 851.5 893.5 852.3 892.6 852.3 892.6 853.1 890.2 853.1 890.2 853.9 888.5 853.9 888.5 854.7 887.7 854.7 887.7 855.5 885.3 855.5 885.3 856.3 883.7 856.3 883.7 857.1 882.1 857.1 882.1 857.9 879.6 857.9 879.6 858.8 877.1 858.8 877.1 859.6 875.4 859.6 875.4 860.4 873.1 860.4 873.1 861.3 871.4 861.3 871.4 862.1 869.8 862.1 869.8 862.8 866.5 862.8 866.5 863.7 864 863.7 864 864.5 862.4 864.5 862.4 865.3 858.3 865.3 858.3 866.2 855.9 866.2 855.9 866.9 854.3 866.9 854.3 867.8 850.1 867.8 850.1 868.6 846.8 868.6 846.8 869.4 844.3 869.4 844.3 870.2 839.5 870.2 839.5 871 835.4 871 835.4 871.8 832.1 871.8 832.1 872.6 824.8 872.6 824.8 873.4 819 873.4 819 875.1 196.2 875.1 196.2 873.4 190.4 873.4 190.4 872.6 183.2 872.6 183.2 871.8 179.9 871.8 179.9 871 175.7 871 175.7 870.2 170.9 870.2 170.9 869.4 168.4 869.4 168.4 868.6 165.1 868.6 165.1 867.8 161 867.8 161 866.9 159.4 866.9 159.4 866.2 156.9 866.2 156.9 865.3 152.9 865.3 152.9 864.5 151.3 864.5 151.3 863.7 148.8 863.7 148.8 862.8 145.4 862.8 145.4 862.1 143.8 862.1 143.8 861.3 142.3 861.3 142.3 860.4 139.8 860.4 139.8 859.6 138.2 859.6 138.2 858.8 135.7 858.8 135.7 857.9 133.2 857.9 133.2 857.1 132.4 857.1 132.4 856.3 130.8 856.3 130.8 855.5 128.3 855.5 128.3 854.7 126.7 854.7 126.7 853.9 125.1 853.9 125.1 853.1 122.6 853.1 122.6 852.3 121.8 852.3 121.8 851.5 120.1 851.5 120.1 850.7 117.6 850.7 117.6 849.9 116.9 849.9 116.9 849 115.3 849 115.3 848.2 113.6 848.2 113.6 847.4 112.8 847.4 112.8 846.5 111.2 846.5 111.2 845.7 109.5 845.7 109.5 845 107.9 845 107.9 844.1 107.1 844.1 107.1 843.3 105.4 843.3 105.4 842.5 103.8 842.5 103.8 841.7 103 841.7 103 840.9 101.3 840.9 101.3 840 100.5 840 100.5 839.2 98.9 839.2 98.9 838.4 97.3 838.4 97.3 837.6 96.5 837.6 96.5 836.8 95.7 836.8 95.7 836 94 836 94 835.1 93.2 835.1 93.2 834.4 92.4 834.4 92.4 833.6 90.7 833.6 90.7 832.7 89.9 832.7 89.9 831.9 88.2 831.9 88.2 831.1 87.5 831.1 87.5 830.3 86.7 830.3 86.7 829.5 85 829.5 85 828.6 84.2 828.6 84.2 827.9 83.4 827.9 83.4 827.1 82.6 827.1 82.6 826.2 80.9 826.2 80.9 825.4 80.1 825.4 80.1 824.6 79.3 824.6 79.3 823.8 78.5 823.8 78.5 822.9 77.6 822.9 77.6 822.1 76 822.1 76 821.3 75.2 821.3 75.2 820.5 74.4 820.5 74.4 819.7 73.5 819.7 73.5 818.9 72.7 818.9 72.7 818.1 72 818.1 72 817.3 71.1 817.3 71.1 816.5 70.4 816.5 70.4 815.7 69.5 815.7 69.5 814.8 68.7 814.8 68.7 814 67 814 67 813.2 66.3 813.2 66.3 812.4 65.4 812.4 65.4 811.5 64.6 811.5 64.6 810.7 63.8 810.7 63.8 809.9 62.9 809.9 62.9 809.1 62.1 809.1 62.1 808.3 61.3 808.3 61.3 807.4 60.4 807.4 60.4 806.7 59.7 806.7 59.7 805.8 58.9 805.8 58.9 804.2 58.1 804.2 58.1 803.4 57.2 803.4 57.2 802.6 56.4 802.6 56.4 801.8 55.6 801.8 55.6 801 54.8 801 54.8 800.1 54 800.1 54 799.4 53.1 799.4 53.1 797.7 52.3 797.7 52.3 796.9 51.5 796.9 51.5 796.1 50.7 796.1 50.7 795.3 49.8 795.3 49.8 794.5 49 794.5 49 792.9 48.2 792.9 48.2 792 47.4 792 47.4 791.2 46.6 791.2 46.6 790.4 45.7 790.4 45.7 788.8 44.9 788.8 44.9 787.9 44.2 787.9 44.2 787.1 43.3 787.1 43.3 785.5 42.6 785.5 42.6 784.6 41.7 784.6 41.7 783.1 40.9 783.1 40.9 782.3 40.1 782.3 40.1 781.5 39.2 781.5 39.2 779.8 38.5 779.8 38.5 779 37.6 779 37.6 778.2 36.8 778.2 36.8 776.5 36 776.5 36 774.9 35.1 774.9 35.1 774.1 34.3 774.1 34.3 772.4 33.5 772.4 33.5 771.6 32.6 771.6 32.6 770 31.9 770 31.9 768.4 31.1 768.4 31.1 767.6 30.3 767.6 30.3 766 29.4 766 29.4 764.3 28.6 764.3 28.6 762.7 27.8 762.7 27.8 761.8 27 761.8 27 760.3 26.2 760.3 26.2 758.6 25.3 758.6 25.3 757 24.5 757 24.5 755.3 23.7 755.3 23.7 753.8 22.9 753.8 22.9 752.9 22.1 752.9 22.1 750.4 21.3 750.4 21.3 748.8 20.4 748.8 20.4 747.2 19.6 747.2 19.6 744.8 18.8 744.8 18.8 743.2 18 743.2 18 742.4 17.1 742.4 17.1 739.9 16.4 739.9 16.4 737.4 15.5 737.4 15.5 735.8 14.8 735.8 14.8 733.4 13.9 733.4 13.9 731.7 13.1 731.7 13.1 729.3 12.3 729.3 12.3 726.1 11.4 726.1 11.4 724.4 10.7 724.4 10.7 722.8 9.8 722.8 9.8 718.7 9 718.7 9 716.3 8.2 716.3 8.2 714.6 7.4 714.6 7.4 710.6 6.5 710.6 6.5 707.3 5.7 707.3 5.7 704.9 4.9 704.9 4.9 699.9 4.1 699.9 4.1 695.9 3.3 695.9 3.3 692.6 2.5 692.6 2.5 685.3 1.6 685.3 1.6 679.6 0 679.6 0 333.5 1.6 333.5 1.6 326.2 2.5 326.2 2.5 319.6 3.3 319.6 3.3 309.9 4.1 309.9 4.1 307.5 4.9 307.5 4.9 303.4 5.7 303.4 5.7 296.8 6.5 296.8 6.5 295.1 7.4 295.1 7.4 292 8.2 292 8.2 287.1 9 287.1 9 285.4 9.8 285.4 9.8 283 10.7 283 10.7 278.9 11.4 278.9 11.4 277.3 12.3 277.3 12.3 274.9 13.1 274.9 13.1 271.6 13.9 271.6 13.9 269.9 14.8 269.9 14.8 268.4 15.5 268.4 15.5 265.1 16.4 265.1 16.4 263.5 17.1 263.5 17.1 261.8 18 261.8 18 259.3 18.8 259.3 18.8 257.7 19.6 257.7 19.6 256.1 20.4 256.1 20.4 253.7 21.3 253.7 21.3 252.1 22.1 252.1 22.1 250.4 22.9 250.4 22.9 248.8 23.7 248.8 23.7 247.1 24.5 247.1 24.5 246.3 25.3 246.3 25.3 243.9 26.2 243.9 26.2 242.2 27 242.2 27 241.5 27.8 241.5 27.8 239 28.6 239 28.6 238.2 29.4 238.2 29.4 236.6 30.3 236.6 30.3 234.9 31.1 234.9 31.1 234.2 31.9 234.2 31.9 232.5 32.6 232.5 32.6 230.9 33.5 230.9 33.5 230.1 34.3 230.1 34.3 228.4 35.1 228.4 35.1 226.8 36 226.8 36 226 36.8 226 36.8 224.3 37.6 224.3 37.6 223.5 38.5 223.5 38.5 221.9 39.2 221.9 39.2 221.1 40.1 221.1 40.1 219.5 40.9 219.5 40.9 218.7 41.7 218.7 41.7 217.9 42.6 217.9 42.6 216.3 43.3 216.3 43.3 215.4 44.2 215.4 44.2 214.6 44.9 214.6 44.9 212.9 45.7 212.9 45.7 212.1 46.6 212.1 46.6 210.4 47.4 210.4 47.4 209.7 48.2 209.7 48.2 208.9 49 208.9 49 208 49.8 208 49.8 206.5 50.7 206.5 50.7 205.6 51.5 205.6 51.5 204.8 52.3 204.8 52.3 204 53.1 204 53.1 203.2 54 203.2 54 202.4 54.8 202.4 54.8 200.7 55.6 200.7 55.6 200 56.4 200 56.4 199.1 57.2 199.1 57.2 198.3 58.1 198.3 58.1 197.5 58.9 197.5 58.9 196.6 59.7 196.6 59.7 195.9 60.4 195.9 60.4 195.1 61.3 195.1 61.3 194.2 62.1 194.2 62.1 192.6 62.9 192.6 62.9 191.8 63.8 191.8 63.8 191 64.6 191 64.6 190.1 65.4 190.1 65.4 189.3 66.3 189.3 66.3 188.5 67 188.5 67 187.6 67.9 187.6 67.9 186.9 69.5 186.9 69.5 186.1 70.4 186.1 70.4 185.3 71.1 185.3 71.1 184.5 72 184.5 72 183.7 72.7 183.7 72.7 182.8 73.5 182.8 73.5 182.1 74.4 182.1 74.4 181.3 75.2 181.3 75.2 180.4 76 180.4 76 179.6 77.6 179.6 77.6 178.8 78.5 178.8 78.5 177.9 79.3 177.9 79.3 177.1 80.1 177.1 80.1 176.3 80.9 176.3 80.9 175.5 81.7 175.5 81.7 174.7 83.4 174.7 83.4 173.8 84.2 173.8 84.2 173 85 173 85 172.2 86.7 172.2 86.7 171.4 87.5 171.4 87.5 170.6 88.2 170.6 88.2 169.8 89.9 169.8 89.9 169 90.7 169 90.7 168.2 91.5 168.2 91.5 167.4 93.2 167.4 93.2 166.5 94 166.5 94 165.7 94.8 165.7 94.8 164.9 96.5 164.9 96.5 164.1 97.3 164.1 97.3 163.3 98.9 163.3 98.9 162.4 100.5 162.4 100.5 161.6 101.3 161.6 101.3 160.9 102.2 160.9 102.2 160 103.8 160 103.8 159.2 105.4 159.2 105.4 158.4 106.3 158.4 106.3 157.6 107.9 157.6 107.9 156.8 109.5 156.8 109.5 156 110.4 156 110.4 155.1 112 155.1 112 154.3 113.6 154.3 113.6 153.5 114.5 153.5 114.5 152.6 116.9 152.6 116.9 151.8 117.6 151.8 117.6 151.1 119.3 151.1 119.3 150.3 121.8 150.3 121.8 149.5 122.6 149.5 122.6 148.6 124.3 148.6 124.3 147.8 126.7 147.8 126.7 147.1 127.6 147.1 127.6 146.2 129.1 146.2 129.1 145.4 131.6 145.4 131.6 144.6 133.2 144.6 133.2 143.8 134.9 143.8 134.9 142.9 137.3 142.9 137.3 142.1 139 142.1 139 141.3 140.6 141.3 140.6 140.5 143.8 140.5 143.8 139.6 145.4 139.6 145.4 138.8 147.1 138.8 147.1 138 151.3 138 151.3 137.2 152.9 137.2 152.9 136.4 154.5 136.4 154.5 135.6 158.6 135.6 158.6 134.8 161 134.8 161 134 162.6 134 162.6 133.2 167.6 133.2 167.6 132.4 170.9 132.4 170.9 131.5 173.2 131.5 173.2 130.7 179 130.7 179 129.9 182.3 129.9 182.3 129.1 185.5 129.1 185.5 128.2 195.4 128.2 195.4 127.4 202.7 127.4 202.7 126.7 209.3 126.7 209.3 125 819 125 819 126.7 824.8 126.7 824.8 127.4 832.1 127.4 832.1 128.2 835.4 128.2 835.4 129.1 839.5 129.1 839.5 129.9 844.3 129.9 844.3 130.7 846.8 130.7 846.8 131.5 850.1 131.5 850.1 132.4 854.3 132.4 854.3 133.2 855.9 133.2 855.9 134 858.3 134 858.3 134.8 862.4 134.8 862.4 135.6 864 135.6 864 136.4 865.7 136.4 865.7 137.2 869 137.2 869 138 871.4 138 871.4 138.8 873.1 138.8 873.1 139.6 875.4 139.6 875.4 140.5 877.1 140.5 877.1 141.3 879.6 141.3 879.6 142.1 882.1 142.1 882.1 142.9 883.7 142.9 883.7 143.8 885.3 143.8 885.3 144.6 886.9 144.6 886.9 145.4 888.5 145.4 888.5 146.2 890.2 146.2 890.2 147.1 892.6 147.1 892.6 147.8 893.5 147.8 893.5 148.6 895.1 148.6 895.1 149.5 896.8 149.5 896.8 150.3 898.4 150.3 898.4 151.1 899.9 151.1 899.9 151.8 901.6 151.8 901.6 152.6 902.4 152.6 902.4 153.5 904 153.5 904 154.3 905.7 154.3 905.7 155.1 907.4 155.1 907.4 156 908.2 156 908.2 156.8 909.9 156.8 909.9 157.6 911.5 157.6 911.5 158.4 912.2 158.4 912.2 159.2 913.9 159.2 913.9 160 914.7 160 914.7 160.9 916.3 160.9 916.3 161.6 918 161.6 918 162.4 918.8 162.4 918.8 163.3 919.6 163.3 919.6 164.1 921.3 164.1 921.3 164.9 922.1 164.9 922.1 165.7 922.9 165.7 922.9 166.5 924.5 166.5 924.5 167.4 925.4 167.4 925.4 168.2 927 168.2 927 169 927.7 169 927.7 169.8 928.6 169.8 928.6 170.6 930.2 170.6 930.2 171.4 931 171.4 931 172.2 931.8 172.2 931.8 173 932.7 173 932.7 173.8 934.3 173.8 934.3 174.7 935.1 174.7 935.1 175.5 936 175.5 936 176.3 936.8 176.3 936.8 177.1 937.6 177.1 937.6 177.9 938.4 177.9 938.4 178.8 940 178.8 940 179.6 940.9 179.6 940.9 180.4 941.7 180.4 941.7 181.3 942.5 181.3 942.5 182.1 943.3 182.1 943.3 182.8 944.1 182.8 944.1 183.7 944.9 183.7 944.9 184.5 945.8 184.5 945.8 185.3 946.5 185.3 946.5 186.1 948.2 186.1 948.2 186.9 949 186.9 949 187.6 949.9 187.6 949.9 188.5 950.7 188.5 950.7 189.3 951.5 189.3 951.5 190.1 952.3 190.1 952.3 191 953.2 191 953.2 191.8 954 191.8 954 192.6 954.8 192.6 954.8 193.4 955.5 193.4 955.5 194.2 956.4 194.2 956.4 195.9 957.2 195.9 957.2 196.6 958 196.6 958 197.5 958.8 197.5 958.8 198.3 959.6 198.3 959.6 199.1 960.5 199.1 960.5 200 961.3 200 961.3 200.7 962.1 200.7 962.1 202.4 962.9 202.4 962.9 203.2 963.8 203.2 963.8 204 964.6 204 964.6 204.8 965.4 204.8 965.4 205.6 966.2 205.6 966.2 207.2 967.1 207.2 967.1 208 967.8 208 967.8 208.9 968.7 208.9 968.7 209.7 969.5 209.7 969.5 211.3 970.3 211.3 970.3 212.1 971.1 212.1 971.1 212.9 971.9 212.9 971.9 214.6 972.7 214.6 972.7 215.4 973.6 215.4 973.6 217.1 974.3 217.1 974.3 217.9 975.1 217.9 975.1 218.7 976 218.7 976 220.3 976.8 220.3 976.8 221.1 977.7 221.1 977.7 221.9 978.5 221.9 978.5 223.5 979.3 223.5 979.3 225.1 980.1 225.1 980.1 226 981 226 981 227.6 981.8 227.6 981.8 228.4 982.6 228.4 982.6 230.1 983.3 230.1 983.3 231.7 984.2 231.7 984.2 232.5 985 232.5 985 234.2 985.8 234.2 985.8 235.7 986.6 235.7 986.6 237.4 987.4 237.4 987.4 238.2 988.3 238.2 988.3 239.9 989.1 239.9 989.1 241.5 989.9 241.5 989.9 243.1 990.7 243.1 990.7 244.7 991.5 244.7 991.5 246.3 992.4 246.3 992.4 247.1 993.2 247.1 993.2 249.6 994 249.6 994 251.3 994.9 251.3 994.9 252.9 995.6 252.9 995.6 255.4 996.4 255.4 996.4 256.9 997.3 256.9 997.3 257.7 998.1 257.7 998.1 260.1 998.9 260.1 998.9 262.6 999.7 262.6 999.7 264.3 1000.4 264.3 1000.4 266.7 1001.4 266.7 1001.4 268.4 1002.1 268.4 1002.1 270.8 1002.9 270.8 1002.9 274 1003.8 274 1003.8 275.7 1004.6 275.7 1004.6 277.3 1005.5 277.3 1005.5 281.3 1006.3 281.3 1006.3 283.8 1007.1 283.8 1007.1 285.4 1007.9 285.4 1007.9 289.6 1008.8 289.6 1008.8 292.7 1009.6 292.7 1009.6 295.1 1010.4 295.1 1010.4 300.1 1011.1 300.1 1011.1 304.2 1012 304.2 1012 307.5 1012.8 307.5 1012.8 314.8 1013.6 314.8 1013.6 320.4 1015.2 320.4M725.1 287.9L725.1 287.1 712.8 287.1 712.8 286.3 519.9 286.3 519.9 287.1 510.1 287.1 510.1 287.9 505.1 287.9 505.1 288.8 497 288.8 497 289.6 492.9 289.6 492.9 290.4 491.3 290.4 491.3 291.2 485.6 291.2 485.6 292 483.1 292 483.1 292.7 481.5 292.7 481.5 293.6 476.5 293.6 476.5 294.3 474.1 294.3 474.1 295.1 472.4 295.1 472.4 296 469.2 296 469.2 296.8 467.6 296.8 467.6 297.6 466 297.6 466 298.5 462.7 298.5 462.7 299.3 461 299.3 461 300.1 459.4 300.1 459.4 301 456.9 301 456.9 301.7 456.1 301.7 456.1 302.6 454.6 302.6 454.6 303.4 452.1 303.4 452.1 304.2 451.2 304.2 451.2 305 449.6 305 449.6 305.8 447.9 305.8 447.9 306.6 447.1 306.6 447.1 307.5 445.5 307.5 445.5 308.2 443.9 308.2 443.9 309 443 309 443 309.9 441.5 309.9 441.5 310.7 439.8 310.7 439.8 311.5 438.9 311.5 438.9 312.3 438.2 312.3 438.2 313.1 436.5 313.1 436.5 314 435.7 314 435.7 314.8 434.9 314.8 434.9 315.5 433.2 315.5 433.2 316.4 432.4 316.4 432.4 317.2 431.6 317.2 431.6 318 430 318 430 318.8 429.1 318.8 429.1 319.6 428.3 319.6 428.3 320.4 426.8 320.4 426.8 321.3 425.9 321.3 425.9 322.1 425.1 322.1 425.1 322.9 424.3 322.9 424.3 323.8 423.4 323.8 423.4 324.6 422.6 324.6 422.6 325.4 421.8 325.4 421.8 326.2 421 326.2 421 327 420.1 327 420.1 327.8 419.3 327.8 419.3 328.6 418.5 328.6 418.5 329.3 417.7 329.3 417.7 330.2 416.8 330.2 416.8 331 416.1 331 416.1 331.8 415.2 331.8 415.2 332.6 414.5 332.6 414.5 333.5 413.7 333.5 413.7 334.3 412.8 334.3 412.8 335.1 412 335.1 412 336.8 411.1 336.8 411.1 337.6 410.4 337.6 410.4 338.4 409.6 338.4 409.6 339.3 408.7 339.3 408.7 340.8 407.9 340.8 407.9 341.7 407.1 341.7 407.1 342.5 406.3 342.5 406.3 344.1 405.5 344.1 405.5 344.9 404.6 344.9 404.6 346.5 403.8 346.5 403.8 347.3 403 347.3 403 348.2 402.2 348.2 402.2 349.8 401.3 349.8 401.3 350.6 400.5 350.6 400.5 352.2 399.7 352.2 399.7 353.8 399 353.8 399 354.6 398.1 354.6 398.1 355.5 397.3 355.5 397.3 357.9 396.5 357.9 396.5 358.8 395.6 358.8 395.6 360.4 394.9 360.4 394.9 362 394 362 394 363.6 393.2 363.6 393.2 365.2 392.4 365.2 392.4 366.9 391.5 366.9 391.5 368.5 390.7 368.5 390.7 370.1 389.9 370.1 389.9 372.6 389 372.6 389 374.3 388.3 374.3 388.3 375.9 387.4 375.9 387.4 379.9 386.7 379.9 386.7 381.5 385.9 381.5 385.9 383.2 385 383.2 385 388.1 384.2 388.1 384.2 389.7 383.3 389.7 383.3 392.1 382.6 392.1 382.6 398.7 381.8 398.7 381.8 401.1 380.9 401.1 380.9 406.8 380.1 406.8 380.1 422.3 379.3 422.3 379.3 576.2 380.1 576.2 380.1 591.6 380.9 591.6 380.9 596.5 381.8 596.5 381.8 599.8 382.6 599.8 382.6 606.3 383.3 606.3 383.3 608.8 384.2 608.8 384.2 611.2 385 611.2 385 616.1 385.9 616.1 385.9 617.7 386.7 617.7 386.7 619.3 387.4 619.3 387.4 623.5 388.3 623.5 388.3 625.1 389 625.1 389 625.9 389.9 625.9 389.9 629 390.7 629 390.7 629.9 391.5 629.9 391.5 631.5 392.4 631.5 392.4 634 393.2 634 393.2 634.9 394 634.9 394 636.5 394.9 636.5 394.9 639 395.6 639 395.6 639.7 396.5 639.7 396.5 641.4 397.3 641.4 397.3 642.9 398.1 642.9 398.1 643.8 399 643.8 399 645.4 399.7 645.4 399.7 647 400.5 647 400.5 647.8 401.3 647.8 401.3 648.7 402.2 648.7 402.2 650.3 403 650.3 403 651.1 403.8 651.1 403.8 652.8 404.6 652.8 404.6 654.3 405.5 654.3 405.5 655.2 406.3 655.2 406.3 656 407.1 656 407.1 657.6 407.9 657.6 407.9 658.5 408.7 658.5 408.7 659.3 409.6 659.3 409.6 660.9 410.4 660.9 410.4 661.7 411.1 661.7 411.1 662.5 412 662.5 412 663.3 412.8 663.3 412.8 664.1 413.7 664.1 413.7 664.9 414.5 664.9 414.5 666.6 415.2 666.6 415.2 667.4 416.1 667.4 416.1 668.2 416.8 668.2 416.8 669 417.7 669 417.7 669.9 418.5 669.9 418.5 670.7 419.3 670.7 419.3 671.5 420.1 671.5 420.1 672.3 421 672.3 421 673.1 421.8 673.1 421.8 674 422.6 674 422.6 674.7 423.4 674.7 423.4 675.6 424.3 675.6 424.3 676.4 425.1 676.4 425.1 677.2 426.8 677.2 426.8 678 427.5 678 427.5 678.8 429.1 678.8 429.1 679.6 430 679.6 430 680.4 430.8 680.4 430.8 681.3 431.6 681.3 431.6 682 433.2 682 433.2 682.9 434 682.9 434 683.7 434.9 683.7 434.9 684.5 436.5 684.5 436.5 685.3 437.3 685.3 437.3 686.1 438.2 686.1 438.2 687 439.8 687 439.8 687.8 441.5 687.8 441.5 688.5 442.3 688.5 442.3 689.4 443.9 689.4 443.9 690.2 444.6 690.2 444.6 691 446.3 691 446.3 691.9 447.9 691.9 447.9 692.6 449.6 692.6 449.6 693.5 450.4 693.5 450.4 694.3 452.1 694.3 452.1 695.1 453.7 695.1 453.7 695.9 454.6 695.9 454.6 696.7 456.9 696.7 456.9 697.5 458.6 697.5 458.6 698.3 460.1 698.3 460.1 699.1 462.7 699.1 462.7 699.9 464.3 699.9 464.3 700.8 466 700.8 466 701.6 469.2 701.6 469.2 702.4 470.8 702.4 470.8 703.2 472.4 703.2 472.4 704 477.4 704 477.4 704.9 479 704.9 479 705.7 480.7 705.7 480.7 706.5 486.4 706.5 486.4 707.3 487.9 707.3 487.9 708.2 490.5 708.2 490.5 709 497.9 709 497.9 709.8 500.2 709.8 500.2 710.6 505.1 710.6 505.1 711.4 725.9 711.4 725.9 710.6 730.8 710.6 730.8 709.8 734.1 709.8 734.1 709 740.6 709 740.6 708.2 743.8 708.2 743.8 707.3 746.3 707.3 746.3 706.5 750.4 706.5 750.4 705.7 752.8 705.7 752.8 704.9 754.5 704.9 754.5 704 758.6 704 758.6 703.2 760.2 703.2 760.2 702.4 761.9 702.4 761.9 701.6 765.1 701.6 765.1 700.8 766.8 700.8 766.8 699.9 767.5 699.9 767.5 699.1 770.9 699.1 770.9 698.3 772.5 698.3 772.5 697.5 774.1 697.5 774.1 696.7 776.5 696.7 776.5 695.9 777.4 695.9 777.4 695.1 779 695.1 779 694.3 780.6 694.3 780.6 693.5 782.3 693.5 782.3 692.6 783.2 692.6 783.2 691.9 785.6 691.9 785.6 691 786.4 691 786.4 690.2 787.1 690.2 787.1 689.4 788.8 689.4 788.8 688.5 790.4 688.5 790.4 687.8 791.3 687.8 791.3 687 792.9 687 792.9 686.1 793.8 686.1 793.8 685.3 795.3 685.3 795.3 684.5 796.2 684.5 796.2 683.7 797.8 683.7 797.8 682.9 798.7 682.9 798.7 682 800.3 682 800.3 681.3 801.1 681.3 801.1 680.4 801.9 680.4 801.9 679.6 803.5 679.6 803.5 678.8 804.3 678.8 804.3 678 805.2 678 805.2 677.2 806 677.2 806 676.4 806.8 676.4 806.8 675.6 807.6 675.6 807.6 674.7 809.3 674.7 809.3 674 810.1 674 810.1 673.1 811 673.1 811 672.3 811.7 672.3 811.7 671.5 812.5 671.5 812.5 670.7 813.4 670.7 813.4 669.9 814.2 669.9 814.2 669 814.9 669 814.9 668.2 815.8 668.2 815.8 667.4 816.5 667.4 816.5 665.7 817.5 665.7 817.5 664.9 818.2 664.9 818.2 664.1 819 664.1 819 663.3 819.9 663.3 819.9 662.5 820.7 662.5 820.7 661.7 821.5 661.7 821.5 660.9 822.4 660.9 822.4 659.3 823.1 659.3 823.1 658.5 824 658.5 824 657.6 824.8 657.6 824.8 656 825.6 656 825.6 655.2 826.5 655.2 826.5 654.3 827.2 654.3 827.2 652.8 828.1 652.8 828.1 651.9 828.9 651.9 828.9 650.3 829.7 650.3 829.7 649.5 830.5 649.5 830.5 648.7 831.3 648.7 831.3 646.3 832.1 646.3 832.1 645.4 833 645.4 833 644.6 833.8 644.6 833.8 642.2 834.6 642.2 834.6 640.5 835.4 640.5 835.4 639.7 836.2 639.7 836.2 638.1 837.1 638.1 837.1 636.5 837.9 636.5 837.9 634.9 838.8 634.9 838.8 632.4 839.5 632.4 839.5 630.7 840.3 630.7 840.3 629.9 841.2 629.9 841.2 626.6 842 626.6 842 625.1 842.7 625.1 842.7 623.5 843.6 623.5 843.6 620.1 844.3 620.1 844.3 617.7 845.3 617.7 845.3 616.1 846 616.1 846 611.2 846.8 611.2 846.8 609.6 847.6 609.6 847.6 607.1 848.5 607.1 848.5 601.4 849.3 601.4 849.3 599 850.1 599 850.1 594.9 850.9 594.9 850.9 583.5 851.8 583.5 851.8 418.2 850.9 418.2 850.9 407.6 850.1 407.6 850.1 403.5 849.3 403.5 849.3 401.1 848.5 401.1 848.5 395.4 847.6 395.4 847.6 392.9 846.8 392.9 846.8 391.3 846 391.3 846 385.6 845.3 385.6 845.3 384 844.3 384 844.3 382.3 843.6 382.3 843.6 378.3 842.7 378.3 842.7 376.7 842 376.7 842 375 841.2 375 841.2 371.8 840.3 371.8 840.3 370.1 839.5 370.1 839.5 369.3 838.8 369.3 838.8 366 837.9 366 837.9 365.2 837.1 365.2 837.1 363.6 836.2 363.6 836.2 361.2 835.4 361.2 835.4 360.4 834.6 360.4 834.6 358.8 833.8 358.8 833.8 356.3 833 356.3 833 355.5 832.1 355.5 832.1 353.8 831.3 353.8 831.3 352.2 830.5 352.2 830.5 351.4 829.7 351.4 829.7 349.8 828.9 349.8 828.9 348.2 828.1 348.2 828.1 347.3 827.2 347.3 827.2 346.5 826.5 346.5 826.5 344.9 825.6 344.9 825.6 344.1 824.8 344.1 824.8 342.5 824 342.5 824 340.8 823.1 340.8 823.1 340 822.4 340 822.4 339.3 821.5 339.3 821.5 337.6 820.7 337.6 820.7 336.8 819.9 336.8 819.9 336 819 336 819 335.1 818.2 335.1 818.2 334.3 817.5 334.3 817.5 333.5 816.5 333.5 816.5 331.8 815.8 331.8 815.8 331 814.9 331 814.9 330.2 814.2 330.2 814.2 329.3 813.4 329.3 813.4 328.6 812.5 328.6 812.5 327.8 811.7 327.8 811.7 326.2 811 326.2 811 325.4 809.3 325.4 809.3 324.6 808.4 324.6 808.4 323.8 807.6 323.8 807.6 322.9 806.8 322.9 806.8 322.1 806 322.1 806 321.3 805.2 321.3 805.2 320.4 803.5 320.4 803.5 319.6 802.7 319.6 802.7 318.8 801.9 318.8 801.9 318 801.1 318 801.1 317.2 800.3 317.2 800.3 316.4 799.4 316.4 799.4 315.5 797.8 315.5 797.8 314.8 797 314.8 797 314 796.2 314 796.2 313.1 794.6 313.1 794.6 312.3 793.8 312.3 793.8 311.5 792.9 311.5 792.9 310.7 791.3 310.7 791.3 309.9 789.7 309.9 789.7 309 788.8 309 788.8 308.2 787.1 308.2 787.1 307.5 786.4 307.5 786.4 306.6 784.7 306.6 784.7 305.8 783.2 305.8 783.2 305 782.3 305 782.3 304.2 780.6 304.2 780.6 303.4 779 303.4 779 302.6 777.4 302.6 777.4 301.7 776.5 301.7 776.5 301 774.1 301 774.1 300.1 772.5 300.1 772.5 299.3 771.6 299.3 771.6 298.5 769.2 298.5 769.2 297.6 767.5 297.6 767.5 296.8 766 296.8 766 296 762.6 296 762.6 295.1 761 295.1 761 294.3 759.3 294.3 759.3 293.6 755.3 293.6 755.3 292.7 752.8 292.7 752.8 292 750.4 292 750.4 291.2 745.5 291.2 745.5 290.4 743.1 290.4 743.1 289.6 739 289.6 739 288.8 730.8 288.8 730.8 287.9 725.1 287.9M268.9 287.1L268.1 287.1 268.1 286.3 163.5 286.3 163.5 287.1 162.6 287.1 162.6 713 268.9 713 268.9 287.1M0 333.5L0 319.6 1.6 319.6 1.6 313.1 2.5 313.1 2.5 306.6 3.3 306.6 3.3 303.4 4.1 303.4 4.1 299.3 4.9 299.3 4.9 294.3 5.7 294.3 5.7 292 6.5 292 6.5 288.8 7.4 288.8 7.4 285.4 8.2 285.4 8.2 283 9 283 9 280.5 9.8 280.5 9.8 277.3 10.7 277.3 10.7 275.7 11.4 275.7 11.4 273.2 12.3 273.2 12.3 269.9 13.1 269.9 13.1 268.4 13.9 268.4 13.9 266 14.8 266 14.8 263.5 15.5 263.5 15.5 261.8 16.4 261.8 16.4 260.1 17.1 260.1 17.1 257.7 18 257.7 18 256.1 18.8 256.1 18.8 254.6 19.6 254.6 19.6 252.1 20.4 252.1 20.4 251.3 21.3 251.3 21.3 249.6 22.1 249.6 22.1 247.1 22.9 247.1 22.9 246.3 23.7 246.3 23.7 244.7 24.5 244.7 24.5 242.2 25.3 242.2 25.3 241.5 26.2 241.5 26.2 239.9 27 239.9 27 238.2 27.8 238.2 27.8 236.6 28.6 236.6 28.6 235.7 29.4 235.7 29.4 233.3 30.3 233.3 30.3 232.5 31.1 232.5 31.1 230.9 31.9 230.9 31.9 230.1 32.6 230.1 32.6 228.4 33.5 228.4 33.5 227.6 34.3 227.6 34.3 226 35.1 226 35.1 225.1 36 225.1 36 223.5 36.8 223.5 36.8 221.9 37.6 221.9 37.6 221.1 38.5 221.1 38.5 219.5 39.2 219.5 39.2 218.7 40.1 218.7 40.1 217.9 40.9 217.9 40.9 216.3 41.7 216.3 41.7 215.4 42.6 215.4 42.6 213.8 43.3 213.8 43.3 212.9 44.2 212.9 44.2 212.1 44.9 212.1 44.9 210.4 45.7 210.4 45.7 209.7 46.6 209.7 46.6 208.9 47.4 208.9 47.4 208 48.2 208 48.2 206.5 49 206.5 49 205.6 49.8 205.6 49.8 204.8 50.7 204.8 50.7 204 51.5 204 51.5 202.4 52.3 202.4 52.3 201.5 53.1 201.5 53.1 200.7 54 200.7 54 200 54.8 200 54.8 199.1 55.6 199.1 55.6 198.3 56.4 198.3 56.4 196.6 57.2 196.6 57.2 195.9 58.1 195.9 58.1 195.1 58.9 195.1 58.9 194.2 59.7 194.2 59.7 193.4 60.4 193.4 60.4 192.6 61.3 192.6 61.3 191.8 62.1 191.8 62.1 191 62.9 191 62.9 190.1 63.8 190.1 63.8 189.3 64.6 189.3 64.6 188.5 65.4 188.5 65.4 187.6 66.3 187.6 66.3 186.9 67 186.9 67 186.1 67.9 186.1 67.9 185.3 68.7 185.3 68.7 184.5 69.5 184.5 69.5 183.7 70.4 183.7 70.4 182.8 71.1 182.8 71.1 182.1 72.7 182.1 72.7 181.3 73.5 181.3 73.5 180.4 74.4 180.4 74.4 179.6 75.2 179.6 75.2 178.8 76 178.8 76 177.9 76.8 177.9 76.8 177.1 78.5 177.1 78.5 176.3 79.3 176.3 79.3 175.5 80.1 175.5 80.1 174.7 80.9 174.7 80.9 173.8 81.7 173.8 81.7 173 83.4 173 83.4 172.2 84.2 172.2 84.2 171.4 85 171.4 85 170.6 85.8 170.6 85.8 169.8 87.5 169.8 87.5 169 88.2 169 88.2 168.2 89.1 168.2 89.1 167.4 90.7 167.4 90.7 166.5 91.5 166.5 91.5 165.7 93.2 165.7 93.2 164.9 94 164.9 94 164.1 94.8 164.1 94.8 163.3 96.5 163.3 96.5 162.4 97.3 162.4 97.3 161.6 98.9 161.6 98.9 160.9 99.8 160.9 99.8 160 101.3 160 101.3 159.2 103 159.2 103 158.4 103.8 158.4 103.8 157.6 104.6 157.6 104.6 156.8 106.3 156.8 106.3 156 107.9 156 107.9 155.1 108.7 155.1 108.7 154.3 111.2 154.3 111.2 153.5 112 153.5 112 152.6 113.6 152.6 113.6 151.8 115.3 151.8 115.3 151.1 116.9 151.1 116.9 150.3 117.6 150.3 117.6 149.5 120.1 149.5 120.1 148.6 121.8 148.6 121.8 147.8 122.6 147.8 122.6 147.1 125.1 147.1 125.1 146.2 126.7 146.2 126.7 145.4 127.6 145.4 127.6 144.6 130 144.6 130 143.8 131.6 143.8 131.6 142.9 133.2 142.9 133.2 142.1 135.7 142.1 135.7 141.3 137.3 141.3 137.3 140.5 139 140.5 139 139.6 142.3 139.6 142.3 138.8 143.8 138.8 143.8 138 145.4 138 145.4 137.2 148.8 137.2 148.8 136.4 151.3 136.4 151.3 135.6 152.9 135.6 152.9 134.8 156.1 134.8 156.1 134 158.6 134 158.6 133.2 161 133.2 161 132.4 164.3 132.4 164.3 131.5 167.6 131.5 167.6 130.7 170.1 130.7 170.1 129.9 174.9 129.9 174.9 129.1 179 129.1 179 128.2 182.3 128.2 182.3 127.4 189.6 127.4 189.6 126.7 195.4 126.7 195.4 125 209.3 125 209.3 126.7 202.7 126.7 202.7 127.4 195.4 127.4 195.4 128.2 185.5 128.2 185.5 129.1 182.3 129.1 182.3 129.9 179 129.9 179 130.7 173.2 130.7 173.2 131.5 170.9 131.5 170.9 132.4 167.6 132.4 167.6 133.2 162.6 133.2 162.6 134 161 134 161 134.8 158.6 134.8 158.6 135.6 154.5 135.6 154.5 136.4 152.9 136.4 152.9 137.2 151.3 137.2 151.3 138 147.1 138 147.1 138.8 145.4 138.8 145.4 139.6 143.8 139.6 143.8 140.5 140.6 140.5 140.6 141.3 139 141.3 139 142.1 137.3 142.1 137.3 142.9 134.9 142.9 134.9 143.8 133.2 143.8 133.2 144.6 131.6 144.6 131.6 145.4 129.1 145.4 129.1 146.2 127.6 146.2 127.6 147.1 126.7 147.1 126.7 147.8 124.3 147.8 124.3 148.6 122.6 148.6 122.6 149.5 121.8 149.5 121.8 150.3 119.3 150.3 119.3 151.1 117.6 151.1 117.6 151.8 116.9 151.8 116.9 152.6 114.5 152.6 114.5 153.5 113.6 153.5 113.6 154.3 112 154.3 112 155.1 110.4 155.1 110.4 156 109.5 156 109.5 156.8 107.9 156.8 107.9 157.6 106.3 157.6 106.3 158.4 105.4 158.4 105.4 159.2 103.8 159.2 103.8 160 102.2 160 102.2 160.9 101.3 160.9 101.3 161.6 100.5 161.6 100.5 162.4 98.9 162.4 98.9 163.3 97.3 163.3 97.3 164.1 96.5 164.1 96.5 164.9 94.8 164.9 94.8 165.7 94 165.7 94 166.5 93.2 166.5 93.2 167.4 91.5 167.4 91.5 168.2 90.7 168.2 90.7 169 89.9 169 89.9 169.8 88.2 169.8 88.2 170.6 87.5 170.6 87.5 171.4 86.7 171.4 86.7 172.2 85 172.2 85 173 84.2 173 84.2 173.8 83.4 173.8 83.4 174.7 81.7 174.7 81.7 175.5 80.9 175.5 80.9 176.3 80.1 176.3 80.1 177.1 79.3 177.1 79.3 177.9 78.5 177.9 78.5 178.8 77.6 178.8 77.6 179.6 76 179.6 76 180.4 75.2 180.4 75.2 181.3 74.4 181.3 74.4 182.1 73.5 182.1 73.5 182.8 72.7 182.8 72.7 183.7 72 183.7 72 184.5 71.1 184.5 71.1 185.3 70.4 185.3 70.4 186.1 69.5 186.1 69.5 186.9 67.9 186.9 67.9 187.6 67 187.6 67 188.5 66.3 188.5 66.3 189.3 65.4 189.3 65.4 190.1 64.6 190.1 64.6 191 63.8 191 63.8 191.8 62.9 191.8 62.9 192.6 62.1 192.6 62.1 194.2 61.3 194.2 61.3 195.1 60.4 195.1 60.4 195.9 59.7 195.9 59.7 196.6 58.9 196.6 58.9 197.5 58.1 197.5 58.1 198.3 57.2 198.3 57.2 199.1 56.4 199.1 56.4 200 55.6 200 55.6 200.7 54.8 200.7 54.8 202.4 54 202.4 54 203.2 53.1 203.2 53.1 204 52.3 204 52.3 204.8 51.5 204.8 51.5 205.6 50.7 205.6 50.7 206.5 49.8 206.5 49.8 208 49 208 49 208.9 48.2 208.9 48.2 209.7 47.4 209.7 47.4 210.4 46.6 210.4 46.6 212.1 45.7 212.1 45.7 212.9 44.9 212.9 44.9 214.6 44.2 214.6 44.2 215.4 43.3 215.4 43.3 216.3 42.6 216.3 42.6 217.9 41.7 217.9 41.7 218.7 40.9 218.7 40.9 219.5 40.1 219.5 40.1 221.1 39.2 221.1 39.2 221.9 38.5 221.9 38.5 223.5 37.6 223.5 37.6 224.3 36.8 224.3 36.8 226 36 226 36 226.8 35.1 226.8 35.1 228.4 34.3 228.4 34.3 230.1 33.5 230.1 33.5 230.9 32.6 230.9 32.6 232.5 31.9 232.5 31.9 234.2 31.1 234.2 31.1 234.9 30.3 234.9 30.3 236.6 29.4 236.6 29.4 238.2 28.6 238.2 28.6 239 27.8 239 27.8 241.5 27 241.5 27 242.2 26.2 242.2 26.2 243.9 25.3 243.9 25.3 246.3 24.5 246.3 24.5 247.1 23.7 247.1 23.7 248.8 22.9 248.8 22.9 250.4 22.1 250.4 22.1 252.1 21.3 252.1 21.3 253.7 20.4 253.7 20.4 256.1 19.6 256.1 19.6 257.7 18.8 257.7 18.8 259.3 18 259.3 18 261.8 17.1 261.8 17.1 263.5 16.4 263.5 16.4 265.1 15.5 265.1 15.5 268.4 14.8 268.4 14.8 269.9 13.9 269.9 13.9 271.6 13.1 271.6 13.1 274.9 12.3 274.9 12.3 277.3 11.4 277.3 11.4 278.9 10.7 278.9 10.7 283 9.8 283 9.8 285.4 9 285.4 9 287.1 8.2 287.1 8.2 292 7.4 292 7.4 295.1 6.5 295.1 6.5 296.8 5.7 296.8 5.7 303.4 4.9 303.4 4.9 307.5 4.1 307.5 4.1 309.9 3.3 309.9 3.3 319.6 2.5 319.6 2.5 326.2 1.6 326.2 1.6 333.5 0 333.5M1015.2 679.6L1015.2 694.3 1013.6 694.3 1013.6 698.3 1012.8 698.3 1012.8 699.9 1012 699.9 1012 705.7 1011.1 705.7 1011.1 709 1010.4 709 1010.4 710.6 1009.6 710.6 1009.6 713.8 1008.8 713.8 1008.8 717.9 1007.9 717.9 1007.9 719.6 1007.1 719.6 1007.1 722.8 1006.3 722.8 1006.3 726.1 1005.5 726.1 1005.5 726.8 1004.6 726.8 1004.6 730.1 1003.8 730.1 1003.8 733.4 1002.9 733.4 1002.9 734.1 1002.1 734.1 1002.1 735.8 1001.4 735.8 1001.4 739 1000.4 739 1000.4 739.9 999.7 739.9 999.7 742.4 998.9 742.4 998.9 744.8 998.1 744.8 998.1 745.6 997.3 745.6 997.3 747.2 996.4 747.2 996.4 750.4 995.6 750.4 995.6 751.3 994.9 751.3 994.9 752.1 994 752.1 994 755.3 993.2 755.3 993.2 756.2 992.4 756.2 992.4 757 991.5 757 991.5 760.3 990.7 760.3 990.7 761.1 989.9 761.1 989.9 761.8 989.1 761.8 989.1 763.5 988.3 763.5 988.3 765.1 987.4 765.1 987.4 766.8 986.6 766.8 986.6 768.4 985.8 768.4 985.8 769.2 985 769.2 985 770 984.2 770 984.2 772.4 983.3 772.4 983.3 773.2 982.6 773.2 982.6 774.1 981.8 774.1 981.8 775.7 981 775.7 981 776.5 980.1 776.5 980.1 778.2 979.3 778.2 979.3 779.8 978.5 779.8 978.5 780.6 977.7 780.6 977.7 781.5 976.8 781.5 976.8 783.1 976 783.1 976 783.8 975.1 783.8 975.1 784.6 974.3 784.6 974.3 787.1 973.6 787.1 973.6 787.9 972.7 787.9 972.7 788.8 971.9 788.8 971.9 790.4 970.3 790.4 970.3 791.2 969.5 791.2 969.5 792.9 968.7 792.9 968.7 793.6 967.8 793.6 967.8 794.5 967.1 794.5 967.1 796.1 966.2 796.1 966.2 796.9 965.4 796.9 965.4 797.7 964.6 797.7 964.6 799.4 963.8 799.4 963.8 800.1 962.9 800.1 962.9 801 962.1 801 962.1 801.8 961.3 801.8 961.3 802.6 960.5 802.6 960.5 803.4 959.6 803.4 959.6 804.2 958.8 804.2 958.8 805 958 805 958 805.8 957.2 805.8 957.2 807.4 955.5 807.4 955.5 808.3 954.8 808.3 954.8 809.9 953.2 809.9 953.2 810.7 952.3 810.7 952.3 812.4 950.7 812.4 950.7 813.2 949.9 813.2 949.9 814.8 948.2 814.8 948.2 815.7 947.4 815.7 947.4 816.5 946.5 816.5 946.5 817.3 945.8 817.3 945.8 818.1 944.9 818.1 944.9 818.9 944.1 818.9 944.1 819.7 943.3 819.7 943.3 820.5 942.5 820.5 942.5 821.3 941.7 821.3 941.7 822.1 940.9 822.1 940.9 822.9 939.3 822.9 939.3 823.8 938.4 823.8 938.4 824.6 937.6 824.6 937.6 825.4 936.8 825.4 936.8 826.2 936 826.2 936 827.1 934.3 827.1 934.3 827.9 933.5 827.9 933.5 828.6 932.7 828.6 932.7 829.5 931 829.5 931 830.3 930.2 830.3 930.2 831.1 929.4 831.1 929.4 831.9 928.6 831.9 928.6 832.7 927 832.7 927 833.6 926.2 833.6 926.2 834.4 924.5 834.4 924.5 835.1 923.7 835.1 923.7 836 922.9 836 922.9 836.8 921.3 836.8 921.3 837.6 920.4 837.6 920.4 838.4 919.6 838.4 919.6 839.2 918 839.2 918 840 916.3 840 916.3 840.9 915.5 840.9 915.5 841.7 913.9 841.7 913.9 842.5 913.1 842.5 913.1 843.3 912.2 843.3 912.2 844.1 910.6 844.1 910.6 845 909 845 909 845.7 908.2 845.7 908.2 846.5 906.5 846.5 906.5 847.4 904 847.4 904 848.2 903.2 848.2 903.2 849 901.6 849 901.6 849.9 899.9 849.9 899.9 850.7 899.2 850.7 899.2 851.5 897.6 851.5 897.6 852.3 895.1 852.3 895.1 853.1 894.3 853.1 894.3 853.9 892.6 853.9 892.6 854.7 890.2 854.7 890.2 855.5 889.3 855.5 889.3 856.3 887.7 856.3 887.7 857.1 885.3 857.1 885.3 857.9 884.4 857.9 884.4 858.8 882.1 858.8 882.1 859.6 879.6 859.6 879.6 860.4 878.7 860.4 878.7 861.3 876.3 861.3 876.3 862.1 873.1 862.1 873.1 862.8 872.1 862.8 872.1 863.7 869.8 863.7 869.8 864.5 866.5 864.5 866.5 865.3 864.9 865.3 864.9 866.2 862.4 866.2 862.4 866.9 858.3 866.9 858.3 867.8 857.5 867.8 857.5 868.6 854.3 868.6 854.3 869.4 850.1 869.4 850.1 870.2 848.5 870.2 848.5 871 845.3 871 845.3 871.8 839.5 871.8 839.5 872.6 837.9 872.6 837.9 873.4 833 873.4 833 875.1 819 875.1 819 873.4 824.8 873.4 824.8 872.6 832.1 872.6 832.1 871.8 835.4 871.8 835.4 871 839.5 871 839.5 870.2 844.3 870.2 844.3 869.4 846.8 869.4 846.8 868.6 850.1 868.6 850.1 867.8 854.3 867.8 854.3 866.9 855.9 866.9 855.9 866.2 858.3 866.2 858.3 865.3 862.4 865.3 862.4 864.5 864 864.5 864 863.7 866.5 863.7 866.5 862.8 869.8 862.8 869.8 862.1 871.4 862.1 871.4 861.3 873.1 861.3 873.1 860.4 875.4 860.4 875.4 859.6 877.1 859.6 877.1 858.8 879.6 858.8 879.6 857.9 882.1 857.9 882.1 857.1 883.7 857.1 883.7 856.3 885.3 856.3 885.3 855.5 887.7 855.5 887.7 854.7 888.5 854.7 888.5 853.9 890.2 853.9 890.2 853.1 892.6 853.1 892.6 852.3 893.5 852.3 893.5 851.5 895.1 851.5 895.1 850.7 897.6 850.7 897.6 849.9 898.4 849.9 898.4 849 899.9 849 899.9 848.2 901.6 848.2 901.6 847.4 902.4 847.4 902.4 846.5 904 846.5 904 845.7 905.7 845.7 905.7 845 907.4 845 907.4 844.1 908.2 844.1 908.2 843.3 909.9 843.3 909.9 842.5 911.5 842.5 911.5 841.7 912.2 841.7 912.2 840.9 913.9 840.9 913.9 840 914.7 840 914.7 839.2 916.3 839.2 916.3 838.4 918 838.4 918 837.6 918.8 837.6 918.8 836.8 919.6 836.8 919.6 836 921.3 836 921.3 835.1 922.1 835.1 922.1 834.4 922.9 834.4 922.9 833.6 924.5 833.6 924.5 832.7 925.4 832.7 925.4 831.9 927 831.9 927 831.1 927.7 831.1 927.7 830.3 928.6 830.3 928.6 829.5 930.2 829.5 930.2 828.6 931 828.6 931 827.9 931.8 827.9 931.8 827.1 932.7 827.1 932.7 826.2 934.3 826.2 934.3 825.4 935.1 825.4 935.1 824.6 936 824.6 936 823.8 936.8 823.8 936.8 822.9 937.6 822.9 937.6 822.1 939.3 822.1 939.3 821.3 940 821.3 940 820.5 940.9 820.5 940.9 819.7 941.7 819.7 941.7 818.9 942.5 818.9 942.5 818.1 943.3 818.1 943.3 817.3 944.1 817.3 944.1 816.5 944.9 816.5 944.9 815.7 946.5 815.7 946.5 814 948.2 814 948.2 813.2 949 813.2 949 812.4 949.9 812.4 949.9 811.5 950.7 811.5 950.7 810.7 951.5 810.7 951.5 809.9 952.3 809.9 952.3 809.1 953.2 809.1 953.2 808.3 954 808.3 954 807.4 954.8 807.4 954.8 806.7 955.5 806.7 955.5 805.8 956.4 805.8 956.4 804.2 957.2 804.2 957.2 803.4 958 803.4 958 802.6 958.8 802.6 958.8 801.8 959.6 801.8 959.6 801 960.5 801 960.5 800.1 961.3 800.1 961.3 799.4 962.1 799.4 962.1 797.7 962.9 797.7 962.9 796.9 963.8 796.9 963.8 796.1 964.6 796.1 964.6 795.3 965.4 795.3 965.4 794.5 966.2 794.5 966.2 792.9 967.1 792.9 967.1 792 967.8 792 967.8 791.2 968.7 791.2 968.7 790.4 969.5 790.4 969.5 788.8 970.3 788.8 970.3 787.9 971.1 787.9 971.1 787.1 971.9 787.1 971.9 785.5 972.7 785.5 972.7 784.6 973.6 784.6 973.6 783.1 974.3 783.1 974.3 782.3 975.1 782.3 975.1 781.5 976 781.5 976 779.8 976.8 779.8 976.8 779 977.7 779 977.7 778.2 978.5 778.2 978.5 776.5 979.3 776.5 979.3 774.9 980.1 774.9 980.1 774.1 981 774.1 981 772.4 981.8 772.4 981.8 771.6 982.6 771.6 982.6 770 983.3 770 983.3 768.4 984.2 768.4 984.2 767.6 985 767.6 985 766 985.8 766 985.8 764.3 986.6 764.3 986.6 762.7 987.4 762.7 987.4 761.8 988.3 761.8 988.3 760.3 989.1 760.3 989.1 758.6 989.9 758.6 989.9 757 990.7 757 990.7 755.3 991.5 755.3 991.5 753.8 992.4 753.8 992.4 752.9 993.2 752.9 993.2 750.4 994 750.4 994 748.8 994.9 748.8 994.9 747.2 995.6 747.2 995.6 744.8 996.4 744.8 996.4 743.2 997.3 743.2 997.3 742.4 998.1 742.4 998.1 739.9 998.9 739.9 998.9 737.4 999.7 737.4 999.7 735.8 1000.4 735.8 1000.4 733.4 1001.4 733.4 1001.4 731.7 1002.1 731.7 1002.1 729.3 1002.9 729.3 1002.9 726.8 1003.8 726.8 1003.8 724.4 1004.6 724.4 1004.6 722.8 1005.5 722.8 1005.5 718.7 1006.3 718.7 1006.3 716.3 1007.1 716.3 1007.1 714.6 1007.9 714.6 1007.9 710.6 1008.8 710.6 1008.8 707.3 1009.6 707.3 1009.6 704.9 1010.4 704.9 1010.4 699.9 1011.1 699.9 1011.1 695.9 1012 695.9 1012 692.6 1012.8 692.6 1012.8 685.3 1013.6 685.3 1013.6 679.6 1015.2 679.6"/></svg>
