<svg xmlns="http://www.w3.org/2000/svg" viewBox="0 0 2286 2286"><path d="M2242.95 43.9Q2199.05 0 2136.9 0H150Q87.85 0 43.9 43.9 0 87.85 0 150v1986.9q0 62.15 43.9 106.05 43.95 43.95 106.1 43.95h1986.9q62.15 0 106.05-43.95 43.95-43.9 43.95-106.05V150q0-62.15-43.95-106.1m-280.05 94.3q101.45 88.9 201.35 196.05 75.15 82.35 44.65 155.7-17.6 36.95-45.7 59.9-28.05 22.95-65.15 46.9-37.05 23.9-72.25 46.3-38.35 24.4-96.9 62.15-147.55 95.15-573.3 367l-218.65-330 387.8-512.7q80.65-118.55 183.85-140.55 152.9-39.65 254.3 49.25m-414.15 1003.3 512.7 387.8Q2180 1609.95 2202 1713.15q39.65 152.9-49.25 254.3-88.9 101.45-196.05 201.35-82.35 75.15-155.7 44.65-36.95-17.6-59.9-45.7-22.95-28.05-46.9-65.15-23.9-37.05-46.3-72.25-24.4-38.35-62.15-96.9-95.15-147.55-367-573.3l330-218.65M542.05 129.95q22.964 28.117 46.85 65.15 23.93 37.078 46.35 72.3 24.412 38.35 62.15 96.85 95.154 147.587 367 573.35l-330 218.65-512.7-387.8Q103.156 687.82 81.15 584.6 41.497 431.681 130.4 330.25q88.908-101.394 196.05-201.3 82.333-75.165 155.7-44.65 36.945 17.594 59.9 45.65m385.5 1095.6 218.65 330-387.8 512.7q-80.65 118.55-183.85 140.55-152.9 39.65-254.3-49.25-101.45-88.9-201.35-196.05-75.15-82.35-44.65-155.7 17.6-36.95 45.7-59.9 28.05-22.95 65.15-46.9 37.05-23.9 72.25-46.3 38.35-24.4 96.9-62.15 147.55-95.15 573.3-367Z"/></svg>